<svg xmlns="http://www.w3.org/2000/svg" width="148" height="148" viewBox="0 0 148 148"><defs><style>.a{fill:#e0faf6;}.b{fill:#2f5fc7;}.c{fill:#fff;font-size:22px;font-family:RobotoCondensed-Bold, Roboto Condensed;font-weight:700;letter-spacing:0.01em;}.d{fill:#f7686c;}</style></defs><g transform="translate(-394 -564)"><circle class="a" cx="74" cy="74" r="74" transform="translate(394 564)"/><circle class="b" cx="19" cy="19" r="19" transform="translate(394 564)"/><text class="c" transform="translate(407 590)"><tspan x="0" y="0">2</tspan></text><g transform="translate(1186.727 -1484.25)"><path class="b" d="M-726.412,2155.938v-3.559c0-.015,0-.029,0-.042a35.414,35.414,0,0,0-.923-8.573c-1.8-6.748-5.714-10.475-13.073-12.459l-.12-.033c-.207-.056-.461-.124-.554-.164a3.119,3.119,0,0,1-.321-.463l-4.637-7.522a6.146,6.146,0,0,0-3.82-2.762l-1.112-14.346a6.16,6.16,0,0,0-6.006-5.883A6.113,6.113,0,0,0-763,2106.02l-1.706,25.392,0,.054c-.247,6.715,2.114,8.856,5.689,12.095l.069.062c.452.409.983.864,1.545,1.344,3.093,2.644,7.766,6.639,7.766,10.489v.483a4.476,4.476,0,0,0-3.1,4.252v6.465a4.476,4.476,0,0,0,4.472,4.469h2.237a1.781,1.781,0,0,0,1.78-1.781,1.78,1.78,0,0,0-1.78-1.781h-2.237a.921.921,0,0,1-.91-.907v-6.465a.921.921,0,0,1,.91-.907h20.486a.921.921,0,0,1,.91.907v6.465a.909.909,0,0,1-.91.907h-2.251a1.781,1.781,0,0,0-1.781,1.781,1.781,1.781,0,0,0,1.781,1.781h2.251a4.476,4.476,0,0,0,4.472-4.469v-6.465a4.475,4.475,0,0,0-3.1-4.252Zm-3.561-.217H-746.08v-.266c0-5.49-5.424-10.128-9.012-13.2-.542-.465-1.054-.9-1.468-1.277l-.07-.062c-3.322-3.012-4.7-4.263-4.522-9.3l1.7-25.363a2.589,2.589,0,0,1,2.465-2.564,2.615,2.615,0,0,1,2.459,2.6l1.107,14.274a6.181,6.181,0,0,0-1.107.536,6.176,6.176,0,0,0-2.021,8.483l7.517,12.2a1.781,1.781,0,0,0,2.451.583,1.782,1.782,0,0,0,.581-2.451l-7.516-12.2a2.608,2.608,0,0,1,.854-3.58,2.61,2.61,0,0,1,3.585.853l4.637,7.522a4.094,4.094,0,0,0,2.983,2.2l.116.032c7.07,1.907,9.335,5.353,10.561,9.94a32.7,32.7,0,0,1,.8,7.717v3.321Zm0,0" transform="translate(0 -2.747)"/><path class="b" d="M-668.907,2131.465l0-.054-1.706-25.392a6.113,6.113,0,0,0-6.026-5.886,6.16,6.16,0,0,0-6,5.884l-1.111,14.346a6.138,6.138,0,0,0-3.819,2.76l-4.641,7.527a3,3,0,0,1-.32.459c-.091.04-.346.108-.552.164l-.118.032c-7.361,1.984-11.272,5.712-13.075,12.461a35.509,35.509,0,0,0-.924,8.572v3.6a4.475,4.475,0,0,0-3.1,4.252v6.465a4.475,4.475,0,0,0,4.472,4.469h20.486a4.475,4.475,0,0,0,4.472-4.469v-6.465a4.475,4.475,0,0,0-3.1-4.252v-.483c0-3.85,4.672-7.845,7.765-10.489.562-.48,1.094-.935,1.545-1.344l.069-.062c3.574-3.239,5.936-5.38,5.69-12.095Zm-15.531,35.189a.919.919,0,0,1-.91.907h-20.486a.921.921,0,0,1-.91-.907v-6.465a.922.922,0,0,1,.91-.907h20.486a.921.921,0,0,1,.91.907Zm7.448-25.734-.069.062c-.412.374-.925.812-1.467,1.275-3.589,3.069-9.012,7.706-9.012,13.2v.266h-16.107V2152.4a32.693,32.693,0,0,1,.8-7.716c1.226-4.588,3.492-8.034,10.563-9.942l.115-.031a4.084,4.084,0,0,0,2.979-2.2l4.641-7.526a2.608,2.608,0,0,1,2.356-1.234h.007a2.589,2.589,0,0,1,1.22.38,2.586,2.586,0,0,1,1.168,1.619,2.567,2.567,0,0,1-.313,1.96l-7.517,12.2a1.781,1.781,0,0,0,.583,2.451,1.781,1.781,0,0,0,2.451-.583l7.516-12.2a6.116,6.116,0,0,0,.746-4.655,6.125,6.125,0,0,0-2.769-3.83,6.153,6.153,0,0,0-1.106-.535l1.107-14.273a2.614,2.614,0,0,1,2.455-2.6,2.59,2.59,0,0,1,2.468,2.564l1.7,25.363c.179,5.036-1.2,6.286-4.524,9.3Zm0,0" transform="translate(-4.654 -2.747)"/><path class="d" d="M-695.995,2112.042a16.817,16.817,0,0,0,0-23.186,13.173,13.173,0,0,0-10.166-3.976,15.806,15.806,0,0,0-10.12,4.3l-.187.175c-.285.266-.593.553-.829.758-.238-.2-.546-.492-.829-.758l-.186-.174a15.807,15.807,0,0,0-10.12-4.3,13.171,13.171,0,0,0-10.163,3.975,16.81,16.81,0,0,0,0,23.188c.015.016.029.029.045.044l20.016,19.3a1.775,1.775,0,0,0,1.236.5,1.775,1.775,0,0,0,1.235-.5l20.023-19.3c.015-.014.029-.029.044-.045Zm-21.3,15.588-8.054-7.766a8.119,8.119,0,0,1,3.888-6.189,8.191,8.191,0,0,0,4.166,1.135,8.194,8.194,0,0,0,4.167-1.135,8.124,8.124,0,0,1,3.888,6.191Zm-4.676-21.052a4.678,4.678,0,0,1,4.676-4.669,4.679,4.679,0,0,1,4.676,4.669,4.678,4.678,0,0,1-4.676,4.669,4.677,4.677,0,0,1-4.676-4.669Zm15.741,10.387a11.725,11.725,0,0,0-4.234-5.792,8.177,8.177,0,0,0,1.406-4.6,8.244,8.244,0,0,0-8.238-8.231,8.244,8.244,0,0,0-8.238,8.231,8.183,8.183,0,0,0,1.406,4.6,11.726,11.726,0,0,0-4.232,5.789l-7.694-7.418a13.22,13.22,0,0,1,.022-18.214c3.872-4.011,10.731-3.808,15.29.453l.185.173c1.233,1.151,2.047,1.913,3.261,1.913s2.028-.762,3.261-1.913l.187-.174c4.557-4.26,11.417-4.462,15.294-.452a13.228,13.228,0,0,1,.02,18.214Zm0,0" transform="translate(-1.838 -1.442)"/><path class="b" d="M-735.708,2173.867a1.78,1.78,0,0,0-1.78,1.781,1.78,1.78,0,0,0,1.78,1.781h.01a1.776,1.776,0,0,0,1.776-1.781,1.786,1.786,0,0,0-1.786-1.781Zm0,0" transform="translate(-2.329 -9.052)"/><g transform="translate(-696.561 2076.25)"><path class="d" d="M-679.829,2093.313a2.357,2.357,0,0,1-1.635-.661l-.012-.012-3.13-3.094a4.136,4.136,0,0,1-.3-5.5,4.12,4.12,0,0,1,5.069-1.1,4.114,4.114,0,0,1,4.786.759,4.094,4.094,0,0,1,1.2,2.913,4.09,4.09,0,0,1-1.2,2.913l-3.111,3.112A2.4,2.4,0,0,1-679.829,2093.313Zm-.027-2.331a.046.046,0,0,0,.071,0l3.094-3.095a1.784,1.784,0,0,0,.523-1.274,1.788,1.788,0,0,0-.523-1.274,1.8,1.8,0,0,0-2.411-.125,1.159,1.159,0,0,1-1.449.006,1.814,1.814,0,0,0-1.341-.391,1.752,1.752,0,0,0-1.2.657,1.818,1.818,0,0,0,.119,2.419Z" transform="translate(685.813 -2082.489)"/></g></g></g></svg>