<svg xmlns="http://www.w3.org/2000/svg" width="260" height="260" viewBox="0 0 260 260">
  <g id="Group_67" data-name="Group 67" transform="translate(-3208 -3289)">
    <rect id="Rectangle_2270" data-name="Rectangle 2270" width="260" height="260" transform="translate(3208 3289)" fill="none"/>
    <g id="Group_66" data-name="Group 66" transform="translate(277 -59.823)">
      <g id="Group_64" data-name="Group 64" transform="translate(2951 3379.823)">
        <path id="Path_1176" data-name="Path 1176" d="M516.981,426.029a3.619,3.619,0,0,1,1.063,2.56,3.662,3.662,0,0,1-1.063,2.56,3.615,3.615,0,0,1-5.121,0,3.662,3.662,0,0,1-1.063-2.56,3.62,3.62,0,0,1,1.063-2.56A3.738,3.738,0,0,1,516.981,426.029Z" transform="translate(-414.489 -283.631)" fill="#292929"/>
        <path id="Path_1177" data-name="Path 1177" d="M523.509,424.994a3.623,3.623,0,0,1,0,7.247H500.73a3.623,3.623,0,1,1,0-7.247Z" transform="translate(-433.868 -283.66)" fill="#292929"/>
        <path id="Path_1178" data-name="Path 1178" d="M507.057,437.025H532.88V415.551H507.057Zm-7.247,0V414.343a6.041,6.041,0,0,1,6.039-6.039h28.238a6.041,6.041,0,0,1,6.039,6.039v22.682h.966a3.623,3.623,0,1,1,0,7.247H498.82a3.623,3.623,0,0,1,0-7.247Z" transform="translate(-436.571 -307.285)" fill="#292929"/>
        <path id="Path_1179" data-name="Path 1179" d="M636.876,439.627a13.636,13.636,0,0,0,27.247.821l-15.991-30.533H627.576l9.131,28.624a.411.411,0,0,0,.024.169,1.92,1.92,0,0,1,.072.362,2.113,2.113,0,0,1,.048.387C636.852,439.506,636.876,439.579,636.876,439.627Zm14.686,88.289h-12.3v6.329h12.3Zm-76.018,26.523a9.161,9.161,0,0,0,11.764,0c5.242-4.59,10.29-8.914,14.977-12.947H560.569C565.424,545.646,570.4,549.946,575.545,554.439ZM595.063,439.8l-3.768-29.88H571.583l-3.792,29.88a13.637,13.637,0,0,0,27.272,0Zm36.958,47.876a16.051,16.051,0,1,0-32.1,0v46.572h32.1Zm-16.039-34.4a13.66,13.66,0,0,0,13.624-13.165l-9.638-30.194H598.589l3.7,29.252a.906.906,0,0,1,.024.242c0,.073.024.145.024.217A13.649,13.649,0,0,0,615.981,453.275ZM498.73,440.449A13.648,13.648,0,0,0,526,439.627v-.169c.024-.121.024-.266.048-.387l.072-.362c.024-.048.024-.121.048-.169l9.107-28.624H514.552Zm93.941,87.467h-81.38v6.329h81.38Zm-27.03-143.339a50.206,50.206,0,0,0-31.378-10.846,53.9,53.9,0,0,0-40.1,17.44c-10.314,11.184-15.991,26.523-15.991,43.166,0,17.2,6.474,33,20.363,49.761,2.947,3.551,6.329,7.271,10.194,11.208V460.184a20.89,20.89,0,0,1-17.271-20.556v-.121a1.884,1.884,0,0,1,.048-.387,1.425,1.425,0,0,1,.048-.338,1.9,1.9,0,0,1,.121-.338,2.123,2.123,0,0,1,.121-.362.185.185,0,0,0,.048-.121l17.271-33.335c.048-.048.073-.1.121-.145a1.615,1.615,0,0,1,.217-.338.943.943,0,0,1,.193-.242,2.768,2.768,0,0,1,.266-.266c.1-.072.169-.145.266-.217l.29-.217.29-.145.362-.145a1.358,1.358,0,0,1,.29-.1,1.93,1.93,0,0,1,.362-.072,1.869,1.869,0,0,1,.362-.048c.072,0,.145-.024.217-.024H650.307c.072,0,.145.024.193.024a2.121,2.121,0,0,1,.386.048.853.853,0,0,1,.338.072,1.2,1.2,0,0,1,.314.1,1.43,1.43,0,0,1,.338.145c.121.048.217.1.314.145.1.073.193.121.29.193a2.4,2.4,0,0,1,.266.242,1.144,1.144,0,0,1,.241.242,2.541,2.541,0,0,1,.217.266c.072.1.145.217.217.314.024.073.073.1.1.169l17.489,33.335a.413.413,0,0,0,.048.121l.145.362c.024.1.073.217.1.338a1.413,1.413,0,0,1,.048.314,2.372,2.372,0,0,1,.048.411c0,.048.024.072.024.121a20.912,20.912,0,0,1-17.271,20.556v35.122c3.841-3.937,7.223-7.657,10.169-11.208,13.89-16.764,20.363-32.562,20.363-49.761,0-16.643-5.677-31.982-15.991-43.166a53.9,53.9,0,0,0-40.1-17.44,50.091,50.091,0,0,0-31.354,10.846,65.03,65.03,0,0,0-12.875,13.431,3.774,3.774,0,0,1-5.87,0A64.93,64.93,0,0,0,565.641,384.577ZM546.9,460.522a20.827,20.827,0,0,1-17.271-9.155,20.914,20.914,0,0,1-13.648,8.817v60.486h76.694v-33a23.3,23.3,0,1,1,46.6,0v33H646.9V460.184a20.914,20.914,0,0,1-13.648-8.817,20.869,20.869,0,0,1-34.543,0,20.869,20.869,0,0,1-34.542,0A20.859,20.859,0,0,1,546.9,460.522ZM533.273,440.11a13.64,13.64,0,0,0,27.272-.483.667.667,0,0,1,.024-.217.8.8,0,0,1,0-.242l3.7-29.252H542.887Zm.99-73.626a57.29,57.29,0,0,1,35.8,12.343,71.516,71.516,0,0,1,11.377,11.112,70.385,70.385,0,0,1,11.353-11.112,57.339,57.339,0,0,1,35.8-12.343A61.052,61.052,0,0,1,674,386.267c11.57,12.513,17.923,29.591,17.923,48.07,0,18.986-7.005,36.258-22.03,54.4a216.476,216.476,0,0,1-15.749,16.788v15.315a6.016,6.016,0,0,1,4.662,5.87v8.744a6.041,6.041,0,0,1-6.039,6.039H613.445c-6.3,5.387-13.648,11.667-21.378,18.407a16.123,16.123,0,0,1-21.281,0c-7.44-6.5-14.614-12.633-21.378-18.407H510.083a6.041,6.041,0,0,1-6.039-6.039v-8.744a6.012,6.012,0,0,1,4.686-5.87V505.524a212.574,212.574,0,0,1-15.774-16.788c-15.025-18.141-22.03-35.412-22.03-54.4,0-18.479,6.377-35.557,17.923-48.07A61.051,61.051,0,0,1,534.263,366.484Z" transform="translate(-470.927 -366.484)" fill="#292929"/>
      </g>
    </g>
  </g>
</svg>
