<svg xmlns="http://www.w3.org/2000/svg" width="320" height="357" viewBox="0 0 320 357"><defs><style>.a{fill:#ffb9bd;}.b{fill:#72dad6;}.c{fill:#759a73;}.d{fill:#578351;}.e{fill:#212d52;}.f{fill:#e38483;}.g{fill:#c95c5c;}.h,.l,.m,.n,.o,.p,.r,.s,.t,.w,.y,.z{fill:none;}.h{stroke:#395535;}.h,.l,.m,.n,.o,.p,.r,.s,.t,.w,.z{stroke-miterlimit:10;}.h,.p,.r{stroke-width:0.538px;}.i{fill:#395535;}.j{fill:#4564bd;}.k{fill:#364d90;}.l,.n,.p{stroke:#4564bd;}.l,.m,.w,.z{stroke-width:0.808px;}.m,.o{stroke:#364d90;}.n{stroke-width:1.23px;}.o,.s{stroke-width:1.077px;}.q{fill:#df6666;}.r,.s,.z{stroke:#763939;}.t{stroke:#212d52;stroke-width:2.154px;}.u{opacity:0.3;}.v{fill:#f9eada;}.w{stroke:#df6666;}.x{fill:#d8686b;}.y{stroke:#7d9efb;stroke-linecap:round;stroke-linejoin:round;}</style></defs><g transform="translate(-222 -411)"><g transform="translate(0 12)"><path class="a" d="M0,0H279.5A77.5,77.5,0,0,1,357,77.5v0A77.5,77.5,0,0,1,279.5,155H0a0,0,0,0,1,0,0V0A0,0,0,0,1,0,0Z" transform="translate(222 756) rotate(-90)"/><rect class="b" width="165" height="171" transform="translate(377 585)"/></g><g transform="translate(70.782 408.67)"><g transform="translate(202.389 287.357)"><path class="c" d="M454.274,349.258c-23.237.167-48.07,5.662-56.784,5.662s-49.376.794-49.376.794-40.663-.794-49.376-.794-33.546-5.5-56.783-5.662-29.129,26-20.964,41.509c17.476,33.2,68.743,30.263,85.589,30.263h83.069c16.846,0,68.113,2.933,85.589-30.263C483.4,375.258,477.51,349.092,454.274,349.258Z" transform="translate(-217.511 -349.257)"/><path class="d" d="M281.48,351.346c7.79,6.336,22.853,18.4,29.511,22.415,9.185,5.544,31.1,21.111,57.241,21.111,24.053,0,59.731-34.769,78.44-43.451-14.557,1.674-27.176,4.03-32.882,4.03-8.713,0-49.376.794-49.376.794s-40.663-.794-49.376-.794C309.244,355.452,296.32,353.023,281.48,351.346Z" transform="translate(-233.811 -349.789)"/><path class="c" d="M257.082,359.423a127.691,127.691,0,0,1,31.53,6.561c6.017,2.091,8.913,6.051,17.828,8.877s13.467,2,23.015,5.317,10.254,8.164,18.3,10.121a71.641,71.641,0,0,1,16.126,6.617l-5.169,26.69H308.159c-15.721,0-61.417,2.55-81.653-24.09C217.084,386.8,232.52,357.9,257.082,359.423Z" transform="translate(-219.09 -351.833)"/><path class="d" d="M365.567,401.447h0c-.008,0-13.849,0-24.037,6.134-9.341,5.623-18.514,13.283-25.346,8.35-10.768-7.774-26.419-9.536-28.715,6.374-.855,5.928,2.435,8.081,4.257,10.894,13.492,1.6,25.86,1.13,32.643,1.13h48.8Z" transform="translate(-235.301 -362.555)"/><g transform="translate(51.003 50.459)"><path class="e" d="M340.245,424.691c-5.976-3.836-11.239-3.345-15.61-1.092s-6.52,2.389-10.356.806-11.141-10.952-22.825-3.46c-9.881,6.336-5.887,17.586,7.487,17.586h37.736C340.067,438.531,340.245,424.691,340.245,424.691Z" transform="translate(-285.954 -417.251)"/><path class="f" d="M370.041,416.969l-28.225,10.889s6.689,1.542,3.6,8.069a1.631,1.631,0,0,0,1.45,2.356h29.51Z" transform="translate(-300.188 -416.969)"/><path class="g" d="M374.69,416.969l-14.627,5.643c4.43,3.259,11.48,9.268,13.4,15.671h7.557Z" transform="translate(-304.837 -416.969)"/></g><g transform="translate(114.772 10.234)"><line class="h" y2="25.483" transform="translate(18.237 0.982)"/><path class="h" d="M401.825,362.99v10.518c0,3.585-3.043,6.214-5.824,6.772" transform="translate(-377.764 -362.99)"/><line class="h" y1="0.379" x2="30.037" transform="translate(9.163 13.724)"/><path class="h" d="M403.557,372.506s-25.177,4.7-32.029,4.7" transform="translate(-371.528 -365.415)"/></g><path class="c" d="M480.533,359.423A127.691,127.691,0,0,0,449,365.984c-6.018,2.091-8.913,6.051-17.829,8.877s-13.466,2-23.014,5.317-10.254,8.164-18.3,10.121a71.654,71.654,0,0,0-16.127,6.617l5.17,26.69h50.551c15.721,0,61.417,2.55,81.653-24.09C520.53,386.8,505.1,357.9,480.533,359.423Z" transform="translate(-257.318 -351.833)"/><path class="i" d="M380.261,405.4c-3.827,1.69-6.526,3.245-6.526,3.245l5.17,26.69h7.731Z" transform="translate(-257.318 -363.563)"/><path class="d" d="M517.238,386.468c7.982-4.833-.641,11.059,11.181,16.3,5.366,2.381,1.247,4.271-6.892,5.246s-13.418-.639-13.682-5.339S510.3,390.668,517.238,386.468Z" transform="translate(-291.486 -358.509)"/><path class="d" d="M232.615,389.339c2.107-6.57,8.769-8.009,10.047-3.71.756,2.545-.155,8.459-3.864,11.957S229.987,397.53,232.615,389.339Z" transform="translate(-221.175 -357.901)"/><path class="h" d="M480.846,364.1s18.29-7.5,35.084-6.228" transform="translate(-284.611 -351.415)"/><path class="h" d="M504.387,361.292s8.991-1.883,22.084,4.154" transform="translate(-290.609 -352.253)"/></g><path class="g" d="M205.432,283.523l31.959-21.517-5.856-47.19Z" transform="translate(-12.044 -27.643)"/><g transform="translate(261.134 106.33)"><g transform="translate(0 48.261)"><path class="j" d="M376.163,175.023l1.575-3.93s40.186,5.91,47.277,7.17,20.1,5.81,24.111,22.614c2.521,10.559,7.17,10.086,11.189,17.1s1.891,10.322,4.885,13.711,3.231,9.14,3.231,9.14H418.676s8.171,50.3,10.607,57.419c5.207,4.972,6.162,6.865,6.254,9.187.237,5.991-14.612,4.5-30.536,4.5s-37.843,9.554-56.577,9.554-34.1-6.557-40.84-14.8l-11.24-113.9,38.592-15.251,3.747,4.2Z" transform="translate(-296.342 -171.093)"/><path class="k" d="M338.707,206.336l-38.189,26.955,8.129,82.372c6.744,8.243,22.106,14.8,40.84,14.8s40.653-9.554,56.577-9.554,30.773,1.494,30.536-4.5c-.092-2.322-1.047-4.216-6.254-9.187-1.921-5.614-7.407-38.076-9.641-51.552-1.38-.435-2.8-.85-4.295-1.23C358.908,239.826,338.707,206.336,338.707,206.336Z" transform="translate(-297.406 -180.073)"/><path class="e" d="M356.584,312.6c27.6,8.364,73.987,19.545,91.552,23.71a51.9,51.9,0,0,0-3.815-3.958c-.8-2.326-2.2-9.264-3.739-17.546l-85.22-9.854Z" transform="translate(-311.381 -205.202)"/><path class="l" d="M372.549,349.272s11.746,3.118,38.131-8.155,29.744-15.592,29.744-15.592" transform="translate(-315.76 -210.443)"/><path class="c" d="M389.468,171.093l-1.575,3.93-37.482,6.7-3.747-4.2-4.287,1.694c2.62,9.222,7.752,20.5,29.245,17.7,18.212-2.375,20.893-20.13,21.288-25.319Z" transform="translate(-308.072 -171.093)"/><path class="m" d="M476.45,218.177A255.522,255.522,0,0,0,453.1,235.158" transform="translate(-336.285 -183.09)"/><path class="m" d="M476.45,244.727s-12.41-2.939-23.349.49" transform="translate(-336.285 -189.557)"/><path class="l" d="M396.2,336.378s-18.8,6.552-37.693-9.333" transform="translate(-312.181 -210.831)"/><line class="n" x1="25.266" y2="18.962" transform="translate(55.812 65.714)"/><path class="o" d="M450.806,253.513h-6.039a21.224,21.224,0,0,1-1.519-9.543c.455-5.164-4.4-23.088-4.4-23.088" transform="translate(-332.652 -183.78)"/></g><g transform="translate(13.291)"><path class="e" d="M360.139,131.555s3.011-13.239-1.125-19.888c-3.7-5.953-12.475-.622-12.475-.622a10.8,10.8,0,0,0-9.838-4.692c-6.838.4-8.5,6.492.494,7.328,0,0-8.736,1.6-17.76,9.417s-5.941,20.573,5.515,20.756,16.344,0,16.344,0Z" transform="translate(-314.178 -106.33)"/><path class="p" d="M323.611,130.6c-5.766,5.811-5.7,11.422-1.723,15.077s13.283,1.1,13.283,1.1" transform="translate(-315.424 -112.513)"/><path class="p" d="M326.285,133.617c-3.618,4.606-3.859,7.924-1.749,10.215s7.479,1.815,7.479,1.815" transform="translate(-316.476 -113.283)"/><path class="p" d="M329.215,136.639c-1.835,2.593-2.581,4.783-1.238,6.375" transform="translate(-317.519 -114.053)"/><path class="f" d="M370.841,150.829l9.945,15.255,10.319,1.346S388.434,187.6,369.2,188.89c-17.756,1.189-21.236-11.217-22.283-14.955l10.17-3.739-3.44-8.749Z" transform="translate(-322.519 -117.669)"/><path class="g" d="M380.692,162.409l-7.55-11.58-17.2,10.618L358.125,167C363.707,168.654,377.623,171.738,380.692,162.409Z" transform="translate(-324.82 -117.669)"/><g transform="translate(16.212 34.247)"><path class="q" d="M343.266,154.234c1.973,2.076,2.321,4.949.776,6.417s-4.4.974-6.368-1.1-2.321-4.95-.777-6.417S341.293,152.157,343.266,154.234Z" transform="translate(-335.933 -152.287)"/><path class="r" d="M341.52,160.365a3.865,3.865,0,0,1-2.256-1.212c-1.252-1.317-1.473-3.139-.493-4.071s2.788-.618,4.04.7" transform="translate(-336.5 -152.863)"/></g><g transform="translate(40.65 16.282)"><path class="q" d="M369.506,134.913c1.342,2.53,3.956,3.772,5.838,2.774s2.32-3.859.978-6.389-3.957-3.772-5.839-2.774S368.163,132.383,369.506,134.913Z" transform="translate(-368.727 -128.179)"/><path class="r" d="M376.032,135.1a3.865,3.865,0,0,0-.433-2.525c-.852-1.605-2.51-2.393-3.7-1.759s-1.472,2.448-.62,4.053" transform="translate(-369.25 -128.795)"/></g><path class="f" d="M348.226,124.794c-.343,9.817-3.123,18.005-9.2,18.788,1.7,2.358,3.143,4.368,5.581,7.754,4.83,6.71,12.839,9.436,19.635,4.545,6.62-4.764,6.754-13.352,1.926-20.062l-5.406-7.51C351.717,129.537,348.226,124.794,348.226,124.794Z" transform="translate(-320.509 -111.035)"/><path class="r" d="M355.132,143.645l4.284,7.915,2.489-3.1" transform="translate(-324.613 -115.838)"/><path class="r" d="M366.712,149.624s.86,2.234-3.231,5.178-5.936,1.42-5.936,1.42" transform="translate(-325.228 -117.362)"/><path class="s" d="M384.943,183.019a35.18,35.18,0,0,1,8.974-3.29" transform="translate(-332.209 -125.033)"/><path class="r" d="M357.9,140.254a4.719,4.719,0,0,0,5.1-3.615" transform="translate(-325.317 -114.053)"/><path class="r" d="M346.139,148.5a4.72,4.72,0,0,0,5.1-3.616" transform="translate(-322.322 -116.155)"/><path class="t" d="M354.749,135.377a13.953,13.953,0,0,1,7.058-2.2" transform="translate(-324.516 -113.17)"/><path class="t" d="M348.6,138.864a11.274,11.274,0,0,0-5.89,5.187" transform="translate(-321.449 -114.62)"/></g></g><rect class="u" width="90.005" height="135.517" rx="11.574" transform="translate(222.417 164.58)"/><path class="v" d="M11.574,0H78.43A11.575,11.575,0,0,1,90,11.575V123.943A11.574,11.574,0,0,1,78.43,135.517H11.575A11.575,11.575,0,0,1,0,123.943V11.574A11.574,11.574,0,0,1,11.574,0Z" transform="translate(218.613 161.026)"/><g transform="translate(158.166 146.479)"><path class="f" d="M222.384,174.046c5.187-7.571,10.582-9.956,10.582-9.956s3.6-4.308,6.948-3.848c1.745.24,2.505,3.765,2.505,3.765a2.874,2.874,0,0,1,1.8,3.221c2.552,1,2.091,4.1,2.091,4.1s5.146,2.552,4.309,3.428c-1.633,1.71-7.781-1.043-7.781-1.043-3.89,5.061-13.72,6.818-13.72,6.818s-16.63,50.351-23.444,72.326-26.615,22.015-35.169,19.558c-9.76-2.8-19.782-15.495-4.4-38.081S222.384,174.046,222.384,174.046Z" transform="translate(-158.166 -160.208)"/><path class="g" d="M168.22,295.2c2.062-3.208,12.867.931,10.231,5.814S165.429,299.538,168.22,295.2Z" transform="translate(-160.607 -194.316)"/><path class="w" d="M273.851,174.741c-1.671-.848-3.166-1.695-7.6-.65" transform="translate(-185.707 -163.622)"/><path class="w" d="M271.39,169.517c-3.051-.952-6.589.486-6.589.486" transform="translate(-185.337 -162.497)"/><path class="w" d="M269.017,165.237a8.816,8.816,0,0,0-6.468,1.252" transform="translate(-184.763 -161.438)"/><path class="w" d="M266.559,164.671a11.879,11.879,0,0,0,1.129-1.964" transform="translate(-185.785 -160.845)"/></g><g transform="translate(228.613 200.137)"><g transform="translate(14.771 20.366)"><path class="x" d="M312.851,268.47a10.626,10.626,0,0,0-20.1-2.842,10.633,10.633,0,1,0-17.112,12.092l15.163,15.163a2.756,2.756,0,0,0,3.9,0l15.163-15.163A10.642,10.642,0,0,0,312.851,268.47Z" transform="translate(-272.524 -259.543)"/></g><line class="y" y2="5.967" transform="translate(35.002)"/><line class="y" y2="5.967" transform="translate(35.002 64.037)"/><line class="y" x1="5.967" transform="translate(64.037 35.002)"/><line class="y" x1="5.967" transform="translate(0 35.002)"/><line class="y" x2="4.219" y2="4.22" transform="translate(10.252 10.252)"/><line class="y" x2="4.219" y2="4.219" transform="translate(55.533 55.533)"/><line class="y" x1="4.219" y2="4.22" transform="translate(55.533 10.252)"/><line class="y" x1="4.219" y2="4.219" transform="translate(10.252 55.533)"/><line class="y" x2="2.284" y2="5.513" transform="translate(21.607 2.664)"/><line class="y" x2="2.284" y2="5.513" transform="translate(46.113 61.827)"/><line class="y" x1="5.513" y2="2.283" transform="translate(61.827 21.608)"/><line class="y" x1="5.513" y2="2.284" transform="translate(2.664 46.113)"/><line class="y" x2="5.513" y2="2.284" transform="translate(2.664 21.608)"/><line class="y" x2="5.513" y2="2.284" transform="translate(61.827 46.113)"/><line class="y" x1="2.284" y2="5.513" transform="translate(46.113 2.664)"/><line class="y" x1="2.284" y2="5.513" transform="translate(21.607 61.827)"/></g><g transform="translate(262.372 224.324)"><path class="f" d="M414.918,264.671l2.791,15.2-88.07,8.72s-9.056-4.459-17.349-4.716a73.879,73.879,0,0,0-14.278.855s-.342,3.163,3.249,2.736,8.208-.171,9.234.256c0,0-2.758,3.285.883,4.923,0,0-2.585,4.26,2.185,6.044a3.57,3.57,0,0,0,1.6,3.677c2.148,1.457,6.153.874,7.172-.837,2.257.8,8.447,1.056,12.2-2.585,0,0,61.134,13.767,89.012,18.859s44.9-7.511,43.426-27.452c-.887-11.985-3.411-25.677-3.411-25.677Z" transform="translate(-298.003 -264.671)"/><g transform="translate(17.198 21.162)"><path class="w" d="M329.189,313.617s-2.876-1.566-4.3-1.493" transform="translate(-322.052 -297.924)"/><line class="w" y1="0.437" x2="3.022" transform="translate(1.966 11.578)"/><line class="w" y1="0.218" x2="2.84" transform="translate(0 8.192)"/><line class="w" x2="2.33" y2="0.255" transform="translate(0.51 4.26)"/><line class="w" x2="2.003" y2="0.765" transform="translate(0.51)"/><path class="w" d="M346.1,306.408a5.073,5.073,0,0,0,4.224,0" transform="translate(-327.456 -296.468)"/></g><path class="g" d="M503.538,264.671H454.9l.852,4.637c3.32,1.591,9.351,3.552,18.633,3.3,13.193-.359,22.989,9.38,31.779,9.667C505.064,272.955,503.538,264.671,503.538,264.671Z" transform="translate(-337.981 -264.671)"/><line class="z" y1="0.787" x2="11.997" transform="translate(119.706 14.409)"/><path class="g" d="M509.392,316.854c.836,1.448-.672,3.884-3.368,5.441s-5.559,1.645-6.4.2.672-3.884,3.368-5.441S508.556,315.406,509.392,316.854Z" transform="translate(-349.32 -277.705)"/></g></g></g></svg>