<svg xmlns="http://www.w3.org/2000/svg" xmlns:xlink="http://www.w3.org/1999/xlink" width="320" height="357.24" viewBox="0 0 320 357.24"><defs><style>.a,.ab,.ac,.ae,.g,.i,.j,.n,.o,.q,.r,.u,.x,.z{fill:none;}.b{fill:#ffb9bd;}.c{fill:#72dad6;}.d{fill:#ffa18d;}.e{fill:#fff;}.f{fill:#0c1832;}.g{stroke:#546a91;}.g,.n,.r{stroke-linejoin:round;}.ac,.g,.j,.n,.q,.r,.z{stroke-width:0.75px;}.h{fill:#507d8c;}.i{stroke:#345d68;}.ab,.ac,.ae,.i,.j,.o,.q,.u,.x,.z{stroke-miterlimit:10;}.j{stroke:#e07a6c;}.k{fill:#ffab37;}.l{clip-path:url(#a);}.m{fill:#d86627;opacity:0.45;}.n{stroke:#d86627;}.o{stroke:#1f304f;stroke-width:3px;}.p{fill:#000100;}.q,.r,.u{stroke:#000100;}.r{stroke-linecap:round;}.s{fill:#ef9d70;}.t{fill:#3e49e1;}.v{fill:#112133;}.w{clip-path:url(#b);}.x{stroke:#172c3f;}.y{fill:#172c3f;}.ab,.z{stroke:#2757aa;}.aa{fill:#2757aa;}.ac{stroke:#d6865f;}.ad{fill:#d17d54;}.ae{stroke:#466ac6;}</style><clipPath id="a"><path class="a" d="M704.291,477.628l3.092,66.958H641.643l4.178-71.25,19.217-13.415s3.437,2.954,9.474,1.858a103.455,103.455,0,0,1,12.065-1.37Z" transform="translate(-641.643 -459.92)"/></clipPath><clipPath id="b"><path class="a" d="M479.586,529.245l-1,6.582s-13.952,21.2-8.058,38.939c.054,19.044-.011,93.56-.011,93.56l91.015-10.294-38.716-122.2-1.3-6.582Z" transform="translate(-469.073 -529.245)"/></clipPath></defs><g transform="translate(-222 -411)"><g transform="translate(0 12)"><path class="b" d="M0,0H279.5A77.5,77.5,0,0,1,357,77.5v0A77.5,77.5,0,0,1,279.5,155H0a0,0,0,0,1,0,0V0A0,0,0,0,1,0,0Z" transform="translate(222 756) rotate(-90)"/><rect class="c" width="165" height="171" transform="translate(377 585)"/></g><g transform="translate(-214.504 53.921)"><g transform="translate(587.056 412.031)"><g transform="translate(27.243 122.088)"><g transform="translate(61.9 82.172)"><path class="d" d="M724.865,633.827,747.3,716.321H720.744l-24.825-82.495" transform="translate(-695.919 -633.827)"/><g transform="translate(23.28 77.288)"><path class="e" d="M750.034,724.508l-27.131.182-1.706-6.784,26.62-.156Z" transform="translate(-721.197 -717.75)"/><path class="f" d="M722.4,724.352l-1.2,14.66h47.252v-3.178a3.431,3.431,0,0,0-1.871-3.057l-16.507-8.426Z" transform="translate(-721.197 -718.272)"/><line class="g" x2="46.99" transform="translate(0.262 17.537)"/><path class="g" d="M722.3,726.819A15.339,15.339,0,0,1,734.534,736" transform="translate(-721.284 -718.467)"/><path class="g" d="M764.117,730.407s-3.314,2.676-3.443,5.88" transform="translate(-724.318 -718.751)"/><path class="g" d="M751.29,726.814l3.289-1.87-.451,3.418,3.16-1.709v3.063l1.87-2.3" transform="translate(-723.576 -718.319)"/><path class="g" d="M754.766,724.759a22.419,22.419,0,0,1-.588-3.388,2.739,2.739,0,0,1,1.031-2.528,1.03,1.03,0,0,1,1.029-.112,1.277,1.277,0,0,1,.442,1.172,8.815,8.815,0,0,1-1.516,4.744" transform="translate(-723.805 -717.82)"/><path class="g" d="M755.012,724.969a8.738,8.738,0,0,1,2.778-2.149,9.982,9.982,0,0,1,1.858-.891,1.825,1.825,0,0,1,1.493.035,1.874,1.874,0,0,1,.542.571,1.627,1.627,0,0,1,.336,1.486,1.215,1.215,0,0,1-.693.615,3.355,3.355,0,0,1-.931.177,32.318,32.318,0,0,1-6.059-.033" transform="translate(-723.817 -718.069)"/></g></g><g transform="translate(0 82.172)"><path class="d" d="M646.875,633.827l2.416,82.495h26.558l-.027-82.495" transform="translate(-630.141 -633.827)"/><g transform="translate(0 77.288)"><path class="e" d="M649.273,724.508l26.957.182-.192-6.784-26.711-.156Z" transform="translate(-630.331 -717.75)"/><path class="f" d="M674.758,724.352l1.2,14.66H628.705v-3.178a3.431,3.431,0,0,1,1.871-3.057l16.507-8.426Z" transform="translate(-628.705 -718.272)"/><line class="g" x1="46.99" transform="translate(0 17.537)"/><path class="g" d="M677.863,726.819A15.338,15.338,0,0,0,665.626,736" transform="translate(-631.624 -718.467)"/><path class="g" d="M636.8,730.407s3.314,2.676,3.443,5.88" transform="translate(-629.345 -718.751)"/><path class="g" d="M649.245,726.814l-3.289-1.87.452,3.418-3.16-1.709v3.063l-1.87-2.3" transform="translate(-629.707 -718.319)"/><path class="g" d="M646.23,724.759a22.544,22.544,0,0,0,.588-3.388,2.741,2.741,0,0,0-1.03-2.528,1.03,1.03,0,0,0-1.029-.112,1.275,1.275,0,0,0-.442,1.172,8.822,8.822,0,0,0,1.515,4.744" transform="translate(-629.939 -717.82)"/><path class="g" d="M645.533,724.969a8.749,8.749,0,0,0-2.778-2.149,10.008,10.008,0,0,0-1.858-.891,1.825,1.825,0,0,0-1.493.035,1.874,1.874,0,0,0-.542.571,1.628,1.628,0,0,0-.336,1.486,1.215,1.215,0,0,0,.693.615,3.348,3.348,0,0,0,.931.177,32.318,32.318,0,0,0,6.059-.033" transform="translate(-629.475 -718.069)"/></g></g><path class="h" d="M645.01,544.6s-2.054,46.648-2.045,72.567c.013,36.674,3.535,82.673,3.535,82.673H681.19s-1.881-51.43-1.881-58.618c0-9.068.324-47.438.324-47.438L702.877,698.1l37.622-.8s-31.456-138.249-36.142-149.581" transform="translate(-629.832 -544.6)"/><path class="i" d="M704.255,546.146c1.311,1.744,36.43,151.381,36.43,151.381" transform="translate(-634.678 -544.722)"/><path class="i" d="M680.8,589.138s-2.637,54.847-2.49,62.414c.212,11.013,1.566,51.747,1.566,51.747" transform="translate(-632.627 -548.121)"/><line class="i" x1="8.661" y1="43.536" transform="translate(41.141 5.648)"/><path class="i" d="M667.556,548.691s3.1,16.654,4.131,18.2,5.052,2.888,5.052,2.888" transform="translate(-631.776 -544.923)"/><path class="i" d="M695.878,550.733c1.549,2.767,3.611,8.06,11.839,11.508" transform="translate(-634.016 -545.085)"/><path class="i" d="M692.509,550.092c1.749,4.055,7.471,12.667,15.435,14.1" transform="translate(-633.749 -545.034)"/><path class="i" d="M644.469,561.325c.734-.37,6.414-7.728,8.48-12.634" transform="translate(-629.951 -544.923)"/><path class="i" d="M644.469,564.905c.934-.433,8.164-9.061,10.793-14.813" transform="translate(-629.951 -545.034)"/><path class="i" d="M649.647,654.63q.5,8.42,1.766,16.769" transform="translate(-630.36 -553.299)"/><path class="i" d="M652.6,659.811q.641,2.248,1.28,4.5" transform="translate(-630.594 -553.709)"/><path class="i" d="M722.6,639.672a90.961,90.961,0,0,1,.371,14.772" transform="translate(-636.128 -552.117)"/><path class="i" d="M719.02,645.112q.37,3.379.741,6.759" transform="translate(-635.845 -552.547)"/></g><path class="d" d="M627.548,467.263l-5.468,4.27,6.566-34.291-18.027-1.371s-10.557,42.893-11.222,46.413-.811,10.652,7.907,14.937c3.037,1.493,10.567,1.863,16.137-1.91,12-8.126,22.724-15.115,22.724-15.115" transform="translate(-599.123 -413.916)"/><path class="d" d="M627.428,446c2.129-9.592,6.122-21.468,5.282-22.689-.37-.538-1.047-.384-1.7.237-1.419,1.359-1.861,4.677-2.882,4.1-.611-.348,1.707-8.4,1.937-12.1a.9.9,0,0,0-1.695-.578,91.71,91.71,0,0,0-3.663,10.268c-.445-.2,2.352-8.593,2.154-12.119-.042-.76-1.255-1.275-1.649-.5-1.543,3.023-4.523,11.838-4.523,11.838s2.909-8.578,2.476-11.78c-.079-.585-1.271-.9-1.557-.361-1.239,2.318-4.513,12.376-4.513,12.376s1.993-7.474,1.979-9.94c0-.664-1.436-.771-1.775-.236-2.733,4.306-7.656,27.019-7.656,27.019" transform="translate(-599.955 -412.031)"/><path class="j" d="M617.962,428.013A12.73,12.73,0,0,1,620.043,432a6.176,6.176,0,0,1-.292,4.409" transform="translate(-600.613 -413.294)"/><path class="j" d="M628.993,430.89a11.2,11.2,0,0,0-3.422,6.529" transform="translate(-601.214 -413.522)"/><line class="j" x1="1.676" y2="10.232" transform="translate(21.281 57.617)"/><path class="k" d="M666.528,458.851s-4.92-.961-10.267-1.61c-3.817-.463-9.085-.451-16.2,4.107-3.419,2.191-14.535,9.242-14.535,9.242l11.279,20.941,16.583-10.218" transform="translate(-601.211 -415.59)"/><path class="k" d="M704.291,477.628l3.092,66.958H641.643l4.178-71.25,19.217-13.415s3.437,2.954,9.474,1.858a103.455,103.455,0,0,1,12.065-1.37Z" transform="translate(-602.485 -415.817)"/><g transform="translate(39.158 44.103)"><g class="l"><g transform="translate(1.381 24.007)"><path class="m" d="M700.415,496.552l-2.391-1.869-2.435,1.814-2.388-1.871-2.434,1.813-2.382-1.868-2.425,1.812-2.389-1.872-2.433,1.814-2.384-1.871-2.43,1.813-2.384-1.87-2.429,1.814-2.383-1.871-2.43,1.813-2.38-1.869-2.425,1.812-2.384-1.872-2.429,1.814-2.378-1.869-2.42,1.812-2.386-1.873-2.43,1.813-4.323-3.4,2.5-3.179-.05-.068.253-.188,1.283-1.634.442.347,2.428-1.812,2.38,1.868,2.424-1.814,2.381,1.872,2.426-1.811,2.382,1.87,2.425-1.813,2.385,1.872,2.43-1.813,2.382,1.87,2.429-1.812,2.384,1.871,2.432-1.813,2.384,1.871,2.429-1.812,2.385,1.869,2.426-1.813,2.388,1.873,2.432-1.812,2.388,1.871,2.43-1.811,2.395,1.872.464-.345,1.258,1.692.214.167-.046.058,2.421,3.254Z" transform="translate(-643.143 -485.988)"/><g transform="translate(0.451 11.902)"><path class="m" d="M702.861,504.809l-2.525-1.872-2.568,1.812-2.522-1.872-2.567,1.811-2.517-1.872-2.565,1.811-2.522-1.872-2.564,1.811-2.519-1.872-2.565,1.812-2.518-1.872-2.565,1.811-2.516-1.872-2.563,1.811-2.516-1.872-2.56,1.811-2.516-1.872-2.563,1.811-2.514-1.872-2.562,1.81-2.517-1.872-2.563,1.811-3.321-2.47,1.649-2.217,1.713,1.275,2.563-1.811,2.517,1.872,2.564-1.811,2.514,1.872,2.561-1.811,2.516,1.872,2.56-1.811,2.516,1.872,2.563-1.811,2.517,1.873,2.563-1.811,2.518,1.872,2.565-1.811,2.519,1.872,2.564-1.811,2.522,1.872L690.2,499.4l2.519,1.873,2.565-1.81,2.522,1.872,2.566-1.811L702.9,501.4l1.754-1.236,1.592,2.258Z" transform="translate(-643.632 -498.912)"/></g></g></g></g><path class="d" d="M730.736,496.419c-2.646-4.607-5.753-10.068-9.144-14.157l-17.337,10.9s10.376,13.018,9.86,20.669c-.637,9.449-1.867,13.182-4.987,26.715-2.477,10.745-5.131,19.661-4.78,20.216s1.031.425,1.7-.169c1.473-1.3,2.045-4.6,3.042-3.977.6.372-2.04,8.32-2.417,12.017a.9.9,0,0,0,1.671.646,91.621,91.621,0,0,0,4.068-10.116c.437.215-2.692,8.493-2.634,12.024.012.761,1.2,1.323,1.628.567,1.662-2.959,4.99-11.648,4.99-11.648s-3.248,8.455-2.943,11.672c.056.587,1.235.946,1.542.423,1.33-2.267,5-12.187,5-12.187s-2.288,7.389-2.372,9.853c-.022.663,1.4.827,1.765.306,2.9-4.194,11.68-31.692,13.836-42.113C736.568,511.91,734.244,502.528,730.736,496.419Z" transform="translate(-607.435 -417.584)"/><path class="k" d="M686.46,460.432s13.016.46,15.837.562a15.183,15.183,0,0,1,9.8,3.913c2.118,2.089,14.073,19.654,14.073,19.654L705.5,498.336l-10.265-13.074" transform="translate(-606.028 -415.858)"/><g transform="translate(95.549 63)"><path class="m" d="M725.136,482.893l-.956,2.527-2.7-.123-.955,2.527-2.7-.123-.953,2.525-2.7-.123-.955,2.526-2.695-.124-.955,2.526-2.7-.122-.955,2.527-1.112-.05-1.938-2.468,1.435.065.955-2.527,2.7.122.956-2.527,2.695.124.954-2.526,2.7.123.953-2.525,2.7.123.955-2.527,2.7.123.955-2.526" transform="translate(-702.875 -480.439)"/></g><line class="n" x2="10.265" y2="13.073" transform="translate(89.209 69.405)"/><path class="n" d="M645.293,488.412s.884-10.706.817-13.925" transform="translate(-602.774 -416.969)"/><path class="n" d="M668.718,468.289c2.524,2.342,10.779,4.529,18.041.355" transform="translate(-604.626 -416.479)"/><path class="n" d="M663.972,461.187a7.992,7.992,0,0,0,2.106,4.652" transform="translate(-604.25 -415.917)"/><path class="o" d="M642.25,491.711" transform="translate(-602.533 -418.331)"/><path class="o" d="M629.688,469.242" transform="translate(-601.54 -416.554)"/><path class="m" d="M641.88,488.361l.38-2.674-2.424-1.192.38-2.673-2.422-1.19.38-2.673-2.423-1.191.381-2.671-2.424-1.193.38-2.673-2.424-1.192.169-1.438-2.614,1.659-.152,1.151,2.424,1.192-.38,2.673,2.423,1.192-.381,2.671,2.423,1.193-.38,2.673,2.422,1.19-.38,2.673,2.424,1.192-.38,2.672,1.155.569,2.393-1.472Z" transform="translate(-601.491 -416.424)"/><g transform="translate(57.052 1.689)"><path class="p" d="M668.858,422.161a9.814,9.814,0,0,0-2.744,5.973,10.636,10.636,0,0,0,.937,7c.1.172.294.366.471.271a.419.419,0,0,0,.141-.158l6.5-10.586" transform="translate(-661.456 -414.521)"/><path class="d" d="M667.9,437.492c-1.609-1.637-3.695-1.778-4.817.484a4.806,4.806,0,0,0-.461,3.07,3.529,3.529,0,0,0,1.821,2.452,2.8,2.8,0,0,0,2.974-.3" transform="translate(-661.189 -415.637)"/><path class="d" d="M670.3,423.966c3.2-1.958,6.7,1.139,10.453,1.289a10.9,10.9,0,0,1,5.324,1.415,9.881,9.881,0,0,1,4.1,6.036,23.6,23.6,0,0,1,.408,7.432A12.857,12.857,0,0,1,689.162,446c-1.342,2.223-3.852,3.4-5.74,5.01a9.811,9.811,0,0,1-5.41,2.082c-3.608.4-9.652-.372-11.846-3.662-1.934-2.9-1.538-5.623-1.106-9.08s4.066-16.382,4.066-16.382" transform="translate(-661.36 -414.613)"/><path class="d" d="M689.758,447.895l-.605,12.917s-1.731,5.561-11.852,5.626c-7.769.051-10.3-5.667-10.3-5.667l2.3-11.448" transform="translate(-661.541 -416.556)"/><path class="p" d="M669.419,426.868c.9.155,1.81.28,2.706.406a41.028,41.028,0,0,1,10.909,2.669,1.519,1.519,0,0,1,.6.394,1.594,1.594,0,0,1,.262.761q.681,4.177,1.775,8.276.546,2.046,1.192,4.062c.052.161,1.276,3.339,1.428,3.175a28.441,28.441,0,0,0,5.1-7.361,14.547,14.547,0,0,0,1.322-6.782c-.124-1.672-1.124-3.114-1.576-4.7-.484-1.7-.087-3.61-.854-5.224a6.393,6.393,0,0,0-1.666-1.982,3.132,3.132,0,0,0-2-.987c-.761.016-1.507.848-1.149,1.52a18.72,18.72,0,0,0-4.56-5.079,8.643,8.643,0,0,0-5.834-2.133,2.623,2.623,0,0,0-2.3,1.385c-.426,1.083.345,2.241,1.093,3.132a10.3,10.3,0,0,0-7.821-3.188,7.672,7.672,0,0,0-6.682,4.8,3.83,3.83,0,0,0,.056,3.068,4.18,4.18,0,0,0,1.283,1.336A15.819,15.819,0,0,0,669.419,426.868Z" transform="translate(-661.073 -413.865)"/><path class="p" d="M679.952,441.055a1.038,1.038,0,1,0,1.318-.646A1.037,1.037,0,0,0,679.952,441.055Z" transform="translate(-662.561 -415.96)"/><path class="p" d="M668.7,437.53a1.038,1.038,0,1,0,1.333-.612A1.037,1.037,0,0,0,668.7,437.53Z" transform="translate(-661.67 -415.683)"/><path class="q" d="M672.154,440.248a23.657,23.657,0,0,0-.909,2.685,4.275,4.275,0,0,0-.1,2.506c.176.374,1.666.066,2.412.055" transform="translate(-661.857 -415.951)"/><path class="e" d="M674.836,448.465a8.116,8.116,0,0,1-.236,1.809,1.774,1.774,0,0,1-3.238.687,4.965,4.965,0,0,1-.579-2.373Z" transform="translate(-661.84 -416.601)"/><g transform="translate(23.024 26.08)"><path class="d" d="M687.466,442.674c2.053-1.026,4.071-.483,4.4,2.021a4.806,4.806,0,0,1-.561,3.054,3.53,3.53,0,0,1-2.517,1.73,2.8,2.8,0,0,1-2.715-1.252" transform="translate(-686.073 -442.184)"/><path class="j" d="M690.817,444.4c-.815-1.368-2.328-.035-2.532.611a3.469,3.469,0,0,0,.2,2.557" transform="translate(-686.236 -442.312)"/><path class="j" d="M689.683,449.952a2.463,2.463,0,0,1-3.008-.559" transform="translate(-686.121 -442.754)"/></g><path class="r" d="M683.4,439.818a2.859,2.859,0,0,0-3.908-1.493" transform="translate(-662.529 -415.774)"/><path class="r" d="M671.047,435.9a2.025,2.025,0,0,0-2.819-1.166" transform="translate(-661.638 -415.497)"/><path class="j" d="M682.705,453.48c-4.233,2.091-9.695,2.7-13.987.39" transform="translate(-661.677 -416.997)"/></g></g><g transform="translate(446.504 428.122)"><g transform="translate(20.784 91.856)"><g transform="translate(2.432 24.995)"><path class="s" d="M501.238,710.05l-6.5-5.317s3.395-49.1,4.555-76.016c.751-17.412,4.812-72.331,4.812-72.331l-29.935,5.869-2.11,63.471s.032,82.669.111,91.153a4.028,4.028,0,0,0,3.811,3.985l8-.239,5.165,2.631" transform="translate(-471.741 -556.386)"/><path class="p" d="M486.979,735.137l12.963-12.317s9.894,7.462,11.887,8.433,5.913,1.334,7.133,3.363a6.649,6.649,0,0,1,.6,3.826h-31.6l-5.286-2.812-3.263-.1-.044,2.915h-7.223l-.086-4.6,11.925-.063Z" transform="translate(-471.741 -569.545)"/><path class="t" d="M521.044,736.3a4.634,4.634,0,0,0-.518-2.3c-1.219-2.03-5.176-3.162-7.169-4.131s-12.135-8.455-12.135-8.455l-12.962,13.6,2.168,1.278Z" transform="translate(-473.022 -569.434)"/><line class="u" y1="13.855" x2="13.166" transform="translate(17.406 153.723)"/><g transform="translate(0 152.692)"><path class="p" d="M479.249,734.865l1.734-.622c-.734-2.045-4.63-12.241-9.269-12.053l.076,1.841C474.215,723.931,477.613,730.307,479.249,734.865Z" transform="translate(-471.714 -722.187)"/></g></g><g transform="translate(29.848 16.809)"><path class="s" d="M580.527,691.649l-7.993-2.583s-14.721-46.96-23.445-72.454c-5.642-16.489-21.863-69.115-21.863-69.115l-25.742,16.369,21.153,59.88s30.14,76.978,33.3,84.851a4.031,4.031,0,0,0,5,2.324l7.367-3.139,5.769.57" transform="translate(-501.484 -547.497)"/><path class="p" d="M576.377,720.336l7.588-16.192s11.932,3.347,14.141,3.524,5.993-.912,7.868.534a6.652,6.652,0,0,1,1.953,3.345l-29.432,11.511-5.947-.693-3.076,1.093,1.019,2.73-6.726,2.631-1.754-4.249,11.083-4.4Z" transform="translate(-506.27 -559.882)"/><path class="t" d="M608.609,709.483a4.632,4.632,0,0,0-1.318-1.95c-1.876-1.446-5.972-1.059-8.182-1.237s-14.381-3.454-14.381-3.454l-7.117,17.391,2.486.4Z" transform="translate(-507.503 -559.779)"/><line class="u" y1="17.699" x2="7.216" transform="translate(72.85 143.816)"/><g transform="translate(51.219 153.716)"><path class="p" d="M568.734,723.746l1.389-1.21c-1.429-1.637-8.771-9.714-13.023-7.849l.74,1.687C560.064,715.4,565.55,720.1,568.734,723.746Z" transform="translate(-557.1 -714.409)"/></g></g><path class="v" d="M479.586,529.245l-1,6.582s-13.952,21.2-8.058,38.939c.054,19.044-.011,93.56-.011,93.56l91.015-10.294-38.716-122.2-1.3-6.582Z" transform="translate(-469.073 -529.245)"/><g class="w"><path class="x" d="M458.16,634.22c10.846,4.081,17.811,14.377,25.059,23.418s16.977,17.99,28.55,17.391c1.531-.079,3.212-.422,4.129-1.65,1.612-2.162-.243-5.2-2.285-6.961-10.811-9.325-27.541-9.067-38.35-18.394-4.444-3.835-7.462-8.994-9.627-14.39-1.03-2.569-2.073-5.21-3.081-7.7a5.1,5.1,0,0,1,1.485-5.947,7.855,7.855,0,0,1,7.358-.8c3.423,1.2,6.091,3.932,8.191,6.889,2.962,4.169,5.108,8.978,8.475,12.814a38.948,38.948,0,0,0,10.566,8.311c8.157,4.482,17.544,6.583,26.779,7.137a11.805,11.805,0,0,0,5.589-.621c1.726-.779,3.115-2.63,2.747-4.489a6.092,6.092,0,0,0-2.033-3.019,51.034,51.034,0,0,0-33.745-13.955c-5.424-.121-10.893.631-16.254-.2a20.861,20.861,0,0,1-6.186-1.95c-1.208-.612-3.753-1.107-4.376-2.324a5.4,5.4,0,0,1-.391-2.625,6.374,6.374,0,0,1,.425-2.5c.68-1.484,2.308-2.264,3.854-2.782,6.772-2.272,14.442-1.052,21.3.42,10.725,2.3,21.271,5.016,32.287,5.546a29.326,29.326,0,0,0,10.017-.857,12.537,12.537,0,0,0,7.725-6.072,5.3,5.3,0,0,0,.6-3.307,5.758,5.758,0,0,0-1.08-2.208,13.952,13.952,0,0,0-6.743-4.919c-2.656-.907-4.456-.219-7.067-.046-7.2.479-14.494.4-21.713.809-13.7.767-28.155.727-40.2-5.846-3.872-2.112-7.834-6.121-6.432-10.3,1.279-3.814,6.126-4.928,10.148-4.855,11.358.2,22.088,4.9,33.145,7.5a91.56,91.56,0,0,0,13.2,2.11c5.7.487,12.348.017,15.754-4.583,2.61-3.524,2.412-8.35,1.728-12.682a7.247,7.247,0,0,0-1.427-3.82,5.169,5.169,0,0,0-5.568-.971,15.553,15.553,0,0,0-4.867,3.445q-10,9.178-20.586,17.687c-10.158,8.161-21.345,15.848-34.833,16.238-1.908.055-4.061-.155-5.282-1.624a5.536,5.536,0,0,1-.953-3.978,13.061,13.061,0,0,1,5.089-9.332c2.569-1.939,5.8-2.869,8.331-4.854,3.342-2.62,5.2-6.857,8.737-9.206,2.893-1.92,6.521-2.313,9.992-2.392,6.206-.142,13.552.567,17.838,5.446,3.926,4.469,7.661,9.056,11.143,13.9,6.82,9.487,13.617,19.889,24.389,25.277,11.906,5.954,27.018,4.8,37.414,13.12-2.51,4.747-8.583,6.408-13.948,6.183-6.964-.292-13.594-2.886-20.145-5.264s-13.389-4.6-20.342-4.106-14.105,4.335-16.525,10.872c-2.707,7.315-.49,18.573,7.062,22.083,5.177,2.405,11.327,1.678,16.673-.325a23.556,23.556,0,0,0,7.7-4.462c2.353-2.149,4.129-5.149,4.062-8.334-.07-3.383-2.187-6.429-4.769-8.617-6.551-5.552-15.576-5.043-23.674-5.823-5.1-.491-10.364-.757-15.213.886-4.19,1.42-7.774,4.167-11.384,6.726-5.661,4.012-11.706,7.717-18.442,9.385s-14.313,1.064-19.948-2.986c-7.521-5.4-9.984-15.466-10.46-24.716-.254-4.941-.072-10.04,1.858-14.6,2.157-5.1,6.282-9.044,9.65-13.434a52.345,52.345,0,0,0,7.742-14.205c1.775-4.96,3.112-10.638,7.485-13.576,4.214-2.832,9.791-2.1,14.787-1.194,13.353,2.418,26.956,5.281,40.378,3.282a9.494,9.494,0,0,0,4.883-1.777c3.283-2.8,1.888-8.073.227-12.056a8.242,8.242,0,0,0-1.8-3.011c-2.64-2.434-6.832-.577-9.938,1.227a128.354,128.354,0,0,1-44.711,15.793c-3.446.532-7.3.829-10.1-1.251a13.964,13.964,0,0,1-3.013-3.514c-2.932-4.309-6-9.424-4.476-14.406,10.466,1.115,19.765,7.049,28.117,13.456,3.887,2.981,7,5.354,9.186,9.888a11.52,11.52,0,0,0,1.9,3.214c1.6,1.625,4.1,1.873,6.377,1.958,2.354.087,4.813.079,6.923-.967a8.8,8.8,0,0,0,4.494-6.036c.659-3.047-.138-6.616-.929-9.6-.939-3.54-2.589-6.214-1.3-10a15.829,15.829,0,0,0,1.162-3.628c.165-1.924-.925-3.733-2.179-5.2a18.3,18.3,0,0,0-15.009-6.556c-5.65.458-11.029,4.326-12.737,9.731a20.4,20.4,0,0,1-1.051,3.19c-1.643,3.228-6.068,4.156-9.5,3.006-4.38-1.468-8.89-5.754-11.231-9.671a12.06,12.06,0,0,1-1.519-3.385c-1.159-4.967,3.66-9.729,8.711-10.425s10.02,1.468,14.6,3.7c6.409,3.128,12.709,6.506,19.342,9.122,7.247,2.858,15.909,4.648,22.48.464,2.551-1.624,4.686-4.813,3.426-7.563a8.179,8.179,0,0,0-2.193-2.557l-11.073-9.77a21.509,21.509,0,0,0-6.46-4.426c-4.415-1.638-9.313-.234-13.808,1.175-4.851,1.52-10.577,4.061-11.066,9.121-.268,2.775,1.234,5.378,2.681,7.761l6.917,11.388c1.57,2.585,3.745,5.507,6.764,5.329,2.58-.154,4.485-2.723,4.8-5.289.609-4.966-1.729-9.539-4.458-13.59a11.573,11.573,0,0,1-1.873-3.451,9.533,9.533,0,0,1,.67-5.317c.915-2.719,2.086-5.582,4.5-7.139a9.22,9.22,0,0,1,7.216-.844c3.977,1.008,7.281,3.608,10.661,5.795,3.466,2.242,6.8,4.874,9.014,8.418,3.926,6.292,3.653,14.232,3.252,21.637a8.912,8.912,0,0,1-.946,4.242c-.932,1.518-2.66,2.322-4.289,3.043l-14.327,6.336a21.917,21.917,0,0,0-6.267,3.651c-2.844,2.65-4.06,6.579-4.968,10.36-1.441,6-2.245,12.846,1.293,17.907,4.146,5.929,12.537,6.952,19.719,6.079s14.455-3.076,21.519-1.513c2.687.595,5.636,2.223,5.9,4.963.243,2.511-1.873,4.558-3.8,6.18-5.16,4.336-10.763,8.865-17.471,9.52-4.742.463-9.446-1.1-13.8-3.026a83.836,83.836,0,0,1-18.789-11.664c-1.47-1.185-3.131-2.437-5.016-2.33-2.065.118-3.722,1.911-4.36,3.878a16.367,16.367,0,0,0-.338,6.154,14.2,14.2,0,0,1-.515,6.13c-3.666,9.4-21.428,10.222-28.913,6.26-4.776-2.528-7.984-7.223-10.646-11.925a110.567,110.567,0,0,1-5.958-12.214c-1.076-2.6-2.055-5.546-1.006-8.155,1.634-4.066,6.955-4.867,11.336-4.926a13.35,13.35,0,0,1,5.491.72c2.883,1.24,4.533,4.235,5.97,7.027,2.379,4.619,4.762,9.246,6.683,14.075,2.949,7.412,4.792,15.586,3.055,23.371a27.119,27.119,0,0,1-16.668,19.143c4.081,6,11.591,8.4,18.415,10.873a165.164,165.164,0,0,1,22.319,10.006c4.14,2.237,8.609,5.25,9.308,9.9" transform="translate(-467.1 -528.912)"/><path class="x" d="M470.62,541.7l9.575,10.592c5.376,5.947,11.278,12.21,19.11,13.92a22.291,22.291,0,0,0,14.4-1.969c4.662-2.282,8.881-6.646,8.783-11.836-.086-4.488-3.433-8.379-7.39-10.5s-8.488-2.827-12.9-3.674-8.93-1.927-12.517-4.625A16.259,16.259,0,0,1,484,525.6c-.913-2.873-.838-6.408,1.383-8.446a10.647,10.647,0,0,1,4.527-2.05c3.272-.9,6.625-1.8,10.007-1.531a28.378,28.378,0,0,1,9.018,2.774q3.746,1.648,7.457,3.377c2.644,1.232,5.593,2.892,6.116,5.761a5.876,5.876,0,0,1-1.844,5.086,11.294,11.294,0,0,1-4.929,2.6,21.351,21.351,0,0,1-25.993-13.681" transform="translate(-469.195 -528.002)"/><path class="x" d="M462.187,566.51a39.135,39.135,0,0,1,11.55,6.446,19.7,19.7,0,0,1,6.827,11.106,6.6,6.6,0,0,1-.789,5.176,8.714,8.714,0,0,1-3.283,2.265c-7.795,3.839-15.345,9.512-18.195,17.721" transform="translate(-468.221 -532.191)"/><path class="x" d="M463.909,598.906c8.467,3.757,17.054,7.549,26.2,9s19.08.309,26.6-5.1c2.55-1.836,4.753-4.1,7.12-6.173a57.04,57.04,0,0,1,8.63-6.224c4.5-2.648,9.673-4.716,14.843-3.982,3.5.5,6.687,2.233,9.751,4" transform="translate(-468.665 -533.754)"/><path class="x" d="M555.925,623.429c-4.734-.669-9.479.81-14.032,2.269-6.473,2.077-12.954,4.155-19.251,6.716-3.858,1.569-7.722,3.371-10.725,6.256-5.048,4.85-6.977,12.046-8.251,18.929-.824,4.457-1.563,9.173-4.4,12.713-2.708,3.383-6.932,5.159-11.1,6.354s-8.5,1.964-12.364,3.921" transform="translate(-469.606 -536.678)"/><path class="x" d="M527.813,677.423a19.629,19.629,0,0,1,9.176-8.949,44.408,44.408,0,0,1,12.472-3.72c12.139-2.133,25.462-2.2,35.824,4.468" transform="translate(-473.717 -539.857)"/><path class="y" d="M487.678,605.937l-1.266-2.761,2.761-1.266Z" transform="translate(-470.444 -534.99)"/><path class="y" d="M528.021,628.305l-1.266-2.761,2.761-1.266Z" transform="translate(-473.634 -536.759)"/><path class="y" d="M546.416,663.244l-1.266-2.761,2.761-1.266Z" transform="translate(-475.088 -539.521)"/><path class="y" d="M489.482,656.775l2.99-.533.534,2.99Z" transform="translate(-470.687 -539.286)"/><path class="y" d="M484.944,675.289l-2.924.82-.82-2.924Z" transform="translate(-470.032 -540.625)"/><path class="y" d="M504.544,635.37l2.921-.833.833,2.921Z" transform="translate(-471.878 -537.57)"/><path class="y" d="M498.472,591.926l2.964-.661.661,2.964Z" transform="translate(-471.398 -534.149)"/><path class="y" d="M518.4,574.69l1.923,2.351-2.351,1.923Z" transform="translate(-472.939 -532.838)"/><path class="y" d="M538.955,608.726l2.563-1.63,1.63,2.563Z" transform="translate(-474.598 -535.4)"/><path class="y" d="M511.929,667.252l2.563-1.63,1.63,2.563Z" transform="translate(-472.462 -540.028)"/><path class="y" d="M480.8,569.343l.557,2.986-2.986.557Z" transform="translate(-469.809 -532.415)"/><path class="y" d="M522.362,539.889l-1.02,2.861-2.861-1.02Z" transform="translate(-472.98 -530.087)"/><path class="y" d="M499.236,559.588l-1.372,2.71-2.71-1.372Z" transform="translate(-471.135 -531.644)"/><path class="y" d="M557.6,641.5l-1.372,2.71-2.71-1.372Z" transform="translate(-475.749 -538.121)"/></g><line class="z" x2="44.229" transform="translate(9.51 6.582)"/><line class="z" y2="6.581" transform="translate(28.254 0)"/><line class="z" x1="0.518" y2="6.581" transform="translate(13.974 0)"/><line class="z" x2="0.378" y2="6.581" transform="translate(43.285 0)"/><line class="z" x2="0.871" y2="6.581" transform="translate(50.524 0)"/><path class="aa" d="M514.092,531.488a.664.664,0,1,1-.664-.664A.664.664,0,0,1,514.092,531.488Z" transform="translate(-472.528 -529.37)"/><path class="aa" d="M514.092,534.272a.664.664,0,1,1-.664-.664A.664.664,0,0,1,514.092,534.272Z" transform="translate(-472.528 -529.59)"/><path class="aa" d="M502.8,531.488a.664.664,0,1,1-.664-.664A.664.664,0,0,1,502.8,531.488Z" transform="translate(-471.635 -529.37)"/><path class="aa" d="M502.8,534.272a.664.664,0,1,1-.664-.664A.664.664,0,0,1,502.8,534.272Z" transform="translate(-471.635 -529.59)"/><path class="s" d="M472.284,550.334l.7,6.764.754,3.9c3.679-3.9,9.708-17.318,9.708-17.318s-1.128-2.121-2.452-4.224" transform="translate(-469.327 -530.053)"/><path class="z" d="M485.85,536.392a71.624,71.624,0,0,1-12.8,25.313" transform="translate(-469.387 -529.81)"/><path class="z" d="M522.746,536.392s4.626,16.837,10.144,18.413" transform="translate(-473.317 -529.81)"/><path class="ab" d="M518.986,623.216A160.386,160.386,0,0,0,503.6,652.688" transform="translate(-471.803 -536.675)"/><path class="ab" d="M513.5,644.005a37.851,37.851,0,0,0-4.131,9.239" transform="translate(-472.259 -538.318)"/></g><g transform="translate(0 17.869)"><path class="s" d="M495.389,467.992l-5.34-1.3s-11.743.122-20.334,6.579c-11.23,8.439-25.281,24.055-22.956,42.73,1.531,12.3,24.187,35.34,24.187,35.34l8.011-17.638s-10.591-16.55-10.431-20.946c.239-6.57,11.9-15.243,11.9-15.243" transform="translate(-446.504 -450.312)"/><path class="s" d="M518.945,496.088s15.184,13.68,19.8,17.3c2,1.568,8.008,5.747,13.157,4.926,7.519-1.2,8.561-5.832,7.22-16.571l-9.141-3.152s-8.432-10.542-13.82-17.247c-6.683-8.316-10.885-12.154-14.753-12.347s-12.444-.35-12.444-.35" transform="translate(-451.443 -450.466)"/><path class="t" d="M492.378,466.682c-7.617,6.939-14.384,28.671-16.424,30.634l4.176,26.97h41.926s1.678-16.805,2.768-29.185c.726-8.241-15.923-28.569-15.923-28.569Z" transform="translate(-448.833 -450.299)"/><path class="p" d="M506.429,491.03a.891.891,0,1,1-.891-.891A.891.891,0,0,1,506.429,491.03Z" transform="translate(-451.101 -452.166)"/><circle class="p" cx="0.891" cy="0.891" r="0.891" transform="translate(54.436 51.168)"/><path class="p" d="M507.4,520.189a.891.891,0,1,1-.891-.891A.892.892,0,0,1,507.4,520.189Z" transform="translate(-451.178 -454.471)"/><path class="t" d="M490.63,466.695s-11.483-.115-19.031,4.254c-10.094,5.843-17.749,19.08-17.749,19.08l18.877,15.289,10.286-5.888Z" transform="translate(-447.085 -450.312)"/><path class="t" d="M511.447,466.532s12.83,1.063,18.707,6.509,13.5,17.694,13.5,17.694l-15.223,14.57-20.277-10.2Z" transform="translate(-451.379 -450.299)"/><path class="q" d="M528.154,505.946s3.466-11.136.821-19.492" transform="translate(-452.96 -451.875)"/><line class="q" y1="4.182" x2="5.789" transform="translate(28.137 49.395)"/><path class="q" d="M489.092,468.277l2.342,10.336,8.323-.907" transform="translate(-449.871 -450.437)"/><path class="q" d="M506.844,488.316c-3.206-4.014-11.023-6.022-11.363-6.133l.856-3.2" transform="translate(-450.377 -451.284)"/><path class="q" d="M517,467.4l-.37,11.338-5.054-1.1" transform="translate(-451.649 -450.368)"/><path class="q" d="M508,488.316c1.6-4.014,6.4-6.126,6.57-6.238l-1.316-3.1" transform="translate(-451.366 -451.284)"/><path class="q" d="M507.405,484.758s.786,7.108.958,13.952c.1,3.82.246,27.017.246,27.017" transform="translate(-451.319 -451.74)"/><line class="q" x2="20.133" y2="16.843" transform="translate(9.097 36.108)"/><path class="q" d="M528.955,503.253c.061-.287,14.13-14.136,14.13-14.136" transform="translate(-453.023 -452.085)"/><g transform="translate(88.784)"><path class="s" d="M543.092,469.064c-.109-1.787-.175-3.579-.181-5.37a14.639,14.639,0,0,1,3.254-9.033c2.8-3.023,5.119-4.169,8.98-5.614.479-.18,1.169-.261,1.361.213a.969.969,0,0,1-.209.855,7.478,7.478,0,0,1-1.329,1.527c-.549.481-1.234,1.019-1.171,1.746a6.22,6.22,0,0,0,1.769.019c3.694-.348,7.749-1.215,10.918-3.2a2.184,2.184,0,0,1,1.226-.467.8.8,0,0,1,.753.932,2.183,2.183,0,0,1,1.3-.4.856.856,0,0,1,.734,1.021c.241-.061.783.01.785,1.091a6.434,6.434,0,0,1-.478,1.843c.02-.048.235.225.242.238a1.676,1.676,0,0,1,.034,1.054c-.284,1.5-3.471,4.713-5.433,6.325-4.946,4.063-8.551,4.29-8.551,4.29" transform="translate(-542.911 -448.906)"/><path class="s" d="M542.928,464.936l1.364,44.538,17.853-4.3-3.474-38.765" transform="translate(-542.912 -450.173)"/><line class="ac" y2="12.07" transform="translate(0.879 42.935)"/><path class="ac" d="M557.925,469.1a6.659,6.659,0,0,1,1.939-1.793" transform="translate(-544.098 -450.36)"/><path class="ac" d="M551.684,459.627a5.66,5.66,0,0,0,2.069-3.961,5.52,5.52,0,0,1,.194-1.605" transform="translate(-543.605 -449.313)"/><path class="ac" d="M570.578,455.157a22.1,22.1,0,0,1-2.207,2.265,6.384,6.384,0,0,1-1.566,1.1,7.786,7.786,0,0,1-3.043.473,17.617,17.617,0,0,0-4.606.562,6.684,6.684,0,0,0-3.75,2.591" transform="translate(-543.899 -449.4)"/><path class="ac" d="M571.185,452.549a28.651,28.651,0,0,1-3.195,2.883,10.827,10.827,0,0,1-4.018,1.917" transform="translate(-544.576 -449.194)"/><path class="ac" d="M569.2,451.249a12.065,12.065,0,0,1-6.666,4.139" transform="translate(-544.463 -449.091)"/></g></g><g transform="translate(23.931)"><path class="p" d="M514.593,437.681c.482,2.8-.7,7.347,1.578,9.46.9.836,2.042,1.538,2.458,2.7.478,1.333-.176,2.422-.632,3.608a4.178,4.178,0,0,0,.109,3.826c1,1.708,0,4.069,0,4.069s-12.482,3.132-18.744.452c-.707-2.723.135-8.121.471-10.88a34.858,34.858,0,0,1,2.267-8.837c.091-.227.185-.451.282-.676" transform="translate(-474.593 -430.15)"/><g transform="translate(36.616 16.722)"><path class="ad" d="M512.353,448.473c1.49-1.224,3.243-1.156,3.979.833a4.04,4.04,0,0,1,.112,2.605,2.966,2.966,0,0,1-1.739,1.885,2.351,2.351,0,0,1-2.456-.519" transform="translate(-512.249 -447.661)"/></g><path class="s" d="M511.548,438.445c-.657-1.793-3.28-2.736-5.137-3.188s-3.75,1.315-5.622,1.7c-2.956.6-6.051,1.759-7.688,4.293-3.016,4.675-1.1,14.183,3.215,17.579,3.586,2.82,12.235,2.6,14.966-.964,1.935-2.527,2.124-4.945,1.937-8.122s-1.3-9.829-1.3-9.829" transform="translate(-474.003 -429.952)"/><path class="p" d="M497,444.348c3.091-1.7,6.469-2.98,8.73-5.935a4.455,4.455,0,0,0,1-2.157c2.487,1.817,3.882,5.375,4.583,9.319.823-1.181,1.174-2.047,1.424-5.705.492-7.192-7-10.719-13.352-10.34-4.553.271-8.9,1.325-12.345,4.487a50.417,50.417,0,0,0-4.8,5.655,13.518,13.518,0,0,1-1.621,1.974c-.745.619-1.713.885-2.435,1.579a5.085,5.085,0,0,0-1.464,4.44,6.149,6.149,0,0,1,.3,2.823c-.355,1.126-1.611,1.643-2.54,2.372a5.356,5.356,0,0,0-1.909,5.124,65.685,65.685,0,0,0,24.428,3.99c-.183.006-2.427-5.132-2.891-5.67a10.754,10.754,0,0,1-2.85-5.158,3.87,3.87,0,0,1,.564-2.453,8.426,8.426,0,0,1,1.668-1.936A18.144,18.144,0,0,1,497,444.348Z" transform="translate(-472.49 -429.503)"/><path class="ae" d="M493.149,445.509a18.743,18.743,0,0,1,2.346,2.429" transform="translate(-474.123 -430.769)"/><path class="ae" d="M495.21,443.023l2.766,2.926" transform="translate(-474.286 -430.572)"/><path class="ae" d="M497.559,441.594a19.43,19.43,0,0,1,2.868,2.947" transform="translate(-474.472 -430.459)"/><path class="s" d="M493.974,456.633l-.186,9.266s6.341,9.091,12.54,16.635c4.051-6.857,3.983-16.785,3.983-16.785l-1.088-8.612" transform="translate(-474.174 -431.648)"/><path class="ac" d="M499.783,461.339a11.393,11.393,0,0,0,5.1,1.462,10.418,10.418,0,0,0,5.73-1.285" transform="translate(-474.648 -432.02)"/><path class="p" d="M502.16,448.723a.949.949,0,1,1-.989-.905A.95.95,0,0,1,502.16,448.723Z" transform="translate(-474.686 -430.951)"/><path class="p" d="M512.67,447.232a.948.948,0,1,1-.989-.906A.947.947,0,0,1,512.67,447.232Z" transform="translate(-475.517 -430.833)"/><path class="u" d="M508.7,450.436s1.458,2.548,1.172,3.21c-.149.347-.933.318-1.614.331" transform="translate(-475.318 -431.158)"/><g transform="translate(15.817 20.019)"><path class="s" d="M493.167,451.363c-2.043-.476-3.721.435-3.48,2.73a4.38,4.38,0,0,0,1.146,2.594,3.223,3.223,0,0,0,2.6,1A2.558,2.558,0,0,0,495.583,456" transform="translate(-489.664 -451.241)"/><path class="ac" d="M490.76,453.586c.434-1.388,2.061-.525,2.379.006a3.169,3.169,0,0,1,.365,2.314" transform="translate(-489.751 -451.367)"/></g><path class="r" d="M498.638,447.137a2.611,2.611,0,0,1,3.747-.751" transform="translate(-474.557 -430.798)"/><path class="r" d="M510.242,445.486a1.85,1.85,0,0,1,2.777-.225" transform="translate(-475.475 -430.707)"/><path class="e" d="M506.582,456.442a3.333,3.333,0,0,0,.507,2.062,1.233,1.233,0,0,0,1.622.126c.508-.293.764-1.783.764-1.783Z" transform="translate(-475.185 -431.633)"/></g></g></g></g></svg>