<svg xmlns="http://www.w3.org/2000/svg" width="110" height="110" viewBox="0 0 110 110"><defs><style>.a{fill:#fff;}.b{fill:#2f5fc7;}.c{fill:#f7686c;}</style></defs><g transform="translate(-654 -1520)"><circle class="a" cx="55" cy="55" r="55" transform="translate(654 1520)"/><g transform="translate(-595.465 234.437)"><path class="b" d="M1316.586,1342.141a4.43,4.43,0,0,1-6.245-2.3,4.425,4.425,0,0,1-6.245,0,4.408,4.408,0,0,0-1.812.389v-3.788a1.17,1.17,0,0,0,.123.006h10.879a4.068,4.068,0,0,0,4.063-4.063v-5.636a1.311,1.311,0,1,0-2.621,0v5.637a1.444,1.444,0,0,1-1.442,1.442h-10.879c-.041,0-.082,0-.123.006v-2.807a4.433,4.433,0,1,0-8.866,0v2.8h-1.89a1.444,1.444,0,0,1-1.442-1.442v-21.758a1.443,1.443,0,0,1,1.442-1.442h21.758a1.444,1.444,0,0,1,1.442,1.442v5.636a1.311,1.311,0,1,0,2.621,0v-5.636a4.068,4.068,0,0,0-4.063-4.063h-21.758a4.067,4.067,0,0,0-4.063,4.063v21.758a4.068,4.068,0,0,0,4.063,4.063h1.89v11.117l-4.517,6.622a7.669,7.669,0,0,0-.605,7.548l5.246,11.182a1.311,1.311,0,1,0,2.374-1.113l-5.246-11.183a5.038,5.038,0,0,1,.4-4.958l2.351-3.447v2.478a1.311,1.311,0,1,0,2.621,0v-23.669a1.812,1.812,0,0,1,3.623,0v19.36a1.311,1.311,0,0,0,2.622,0v-6.112a1.812,1.812,0,0,1,3.623,0v6.112a1.311,1.311,0,1,0,2.621,0v-6.112a1.812,1.812,0,0,1,3.624,0v6.112a1.311,1.311,0,1,0,2.621,0v-3.811a1.812,1.812,0,0,1,3.623,0v10.958a28.7,28.7,0,0,1-1.316,8.595l-1.832,5.841a1.311,1.311,0,1,0,2.5.784l1.832-5.841a31.3,31.3,0,0,0,1.436-9.38v-10.957a4.438,4.438,0,0,0-4.433-4.433Zm0,0" transform="translate(0 0)"/><path class="c" d="M1354.139,1355.636l-6.531,6.532-2.742-2.742a1.311,1.311,0,0,0-1.854,1.854l3.669,3.67a1.312,1.312,0,0,0,1.854,0l7.459-7.459a1.311,1.311,0,0,0-1.854-1.854Zm0,0" transform="translate(-45.908 -40.521)"/><path class="b" d="M1451.278,1387.813a1.311,1.311,0,1,0,.927.384,1.321,1.321,0,0,0-.927-.384Zm0,0" transform="translate(-135.24 -67.619)"/></g></g></svg>