<svg xmlns="http://www.w3.org/2000/svg" width="85" height="85" viewBox="0 0 85 85"><defs><style>.a{fill:#e6e6e6;}.b{fill:#c7c7c7;}.c{fill:#2f5fc7;}</style></defs><g transform="translate(-416 -1764)"><rect class="a" width="85" height="85" transform="translate(416 1764)"/><g transform="translate(430.052 1786.473)"><path class="b" d="M1044.437,1030.318a.931.931,0,0,1,.273.659.942.942,0,0,1-.273.659.931.931,0,0,1-1.318,0,.943.943,0,0,1-.274-.659.932.932,0,0,1,.274-.659A.962.962,0,0,1,1044.437,1030.318Z" transform="translate(-1018.055 -993.665)"/><path class="b" d="M1035.951,1030.037a.933.933,0,1,1,0,1.865h-5.863a.933.933,0,0,1,0-1.865Z" transform="translate(-1012.877 -993.657)"/><path class="b" d="M1030.3,1020.74h6.647v-5.528H1030.3Zm-1.865,0V1014.9a1.555,1.555,0,0,1,1.555-1.554h7.269a1.555,1.555,0,0,1,1.554,1.554v5.839h.249a.933.933,0,0,1,0,1.865h-10.881a.933.933,0,1,1,0-1.865Z" transform="translate(-1012.154 -987.345)"/><path class="b" d="M1045.691,990.354a3.51,3.51,0,0,0,7.013.211l-4.116-7.859H1043.3l2.351,7.368a.106.106,0,0,0,.006.044.516.516,0,0,1,.019.093.565.565,0,0,1,.012.1C1045.684,990.323,1045.691,990.342,1045.691,990.354Zm3.78,22.726h-3.165v1.629h3.165Zm-19.567,6.827a2.358,2.358,0,0,0,3.028,0c1.349-1.181,2.649-2.294,3.855-3.333h-10.738C1027.3,1017.644,1028.58,1018.751,1029.9,1019.907Zm5.024-29.509-.97-7.691h-5.074l-.976,7.691a3.51,3.51,0,0,0,7.02,0Zm9.513,12.324a4.132,4.132,0,1,0-8.264,0v11.988h8.264Zm-4.129-8.854a3.516,3.516,0,0,0,3.507-3.388l-2.481-7.772h-5.5l.951,7.53a.237.237,0,0,1,.006.062c0,.019.006.038.006.056A3.513,3.513,0,0,0,1040.313,993.867Zm-30.181-3.3a3.513,3.513,0,0,0,7.02-.211v-.044c.006-.031.006-.068.012-.1l.019-.093c.006-.012.006-.031.013-.044l2.344-7.368H1014.2Zm24.181,22.514h-20.948v1.629h20.948Zm-6.958-36.9a12.923,12.923,0,0,0-8.077-2.792,13.874,13.874,0,0,0-10.321,4.489,16.266,16.266,0,0,0-4.116,11.111c0,4.427,1.666,8.493,5.241,12.808.759.914,1.629,1.872,2.624,2.885v-9.041a5.377,5.377,0,0,1-4.446-5.291v-.031a.49.49,0,0,1,.012-.1.373.373,0,0,1,.012-.087.5.5,0,0,1,.031-.087.553.553,0,0,1,.031-.093.047.047,0,0,0,.013-.031l4.446-8.58c.012-.013.019-.025.031-.038a.423.423,0,0,1,.056-.087.253.253,0,0,1,.05-.062.7.7,0,0,1,.068-.068c.025-.019.044-.037.068-.056l.074-.056.075-.037.093-.037a.351.351,0,0,1,.075-.025.5.5,0,0,1,.093-.019.479.479,0,0,1,.093-.012c.019,0,.037-.006.056-.006h35.509c.019,0,.037.006.049.006a.545.545,0,0,1,.1.012.221.221,0,0,1,.087.019.313.313,0,0,1,.081.025.373.373,0,0,1,.087.037c.031.013.056.025.081.037s.05.031.074.05a.622.622,0,0,1,.069.062.294.294,0,0,1,.062.062.647.647,0,0,1,.056.068c.018.025.037.056.056.081s.019.025.025.044l4.5,8.58a.105.105,0,0,0,.012.031l.037.093c.006.025.019.056.025.087a.357.357,0,0,1,.013.081.609.609,0,0,1,.012.106c0,.013.006.019.006.031a5.383,5.383,0,0,1-4.446,5.291v9.041c.989-1.013,1.859-1.971,2.618-2.885,3.575-4.315,5.241-8.381,5.241-12.808a16.267,16.267,0,0,0-4.116-11.111,13.875,13.875,0,0,0-10.322-4.489,12.893,12.893,0,0,0-8.071,2.792,16.744,16.744,0,0,0-3.314,3.457.972.972,0,0,1-1.511,0A16.711,16.711,0,0,0,1027.355,976.184Zm-4.825,19.548a4.559,4.559,0,0,0-7.959-.087v15.569h19.741v-8.494a6,6,0,1,1,11.994,0v8.494h1.965V995.646a4.559,4.559,0,0,0-7.958.087,5.372,5.372,0,0,0-8.891,0,5.371,5.371,0,0,0-8.891,0Zm-3.507-5.254a3.511,3.511,0,0,0,7.02-.124.173.173,0,0,1,.006-.056.206.206,0,0,1,0-.062l.951-7.53h-5.5Zm.255-18.952a14.747,14.747,0,0,1,9.215,3.177,18.41,18.41,0,0,1,2.929,2.86,18.1,18.1,0,0,1,2.922-2.86,14.76,14.76,0,0,1,9.214-3.177,15.714,15.714,0,0,1,11.689,5.092,18.085,18.085,0,0,1,4.614,12.373c0,4.887-1.8,9.333-5.67,14a55.664,55.664,0,0,1-4.054,4.321v3.942a1.549,1.549,0,0,1,1.2,1.511v2.251a1.555,1.555,0,0,1-1.554,1.554h-10.123c-1.623,1.386-3.513,3-5.5,4.738a4.151,4.151,0,0,1-5.478,0c-1.915-1.673-3.762-3.252-5.5-4.738h-10.122a1.555,1.555,0,0,1-1.555-1.554v-2.251a1.548,1.548,0,0,1,1.206-1.511v-3.942a54.715,54.715,0,0,1-4.06-4.321c-3.867-4.669-5.671-9.115-5.671-14a18.115,18.115,0,0,1,4.614-12.373A15.714,15.714,0,0,1,1019.278,971.527Z" transform="translate(-1002.975 -971.527)"/></g><path class="c" d="M10.5,3A7.5,7.5,0,1,0,18,10.5,7.5,7.5,0,0,0,10.5,3Zm3.75,8.25h-3v3H9.75v-3h-3V9.75h3v-3h1.5v3h3Z" transform="translate(479.075 1765.354)"/></g></svg>