<svg xmlns="http://www.w3.org/2000/svg" width="148" height="148" viewBox="0 0 148 148"><defs><style>.a{fill:#e0faf6;}.b{fill:#2f5fc7;}.c{fill:#fff;font-size:22px;font-family:RobotoCondensed-Bold, Roboto Condensed;font-weight:700;letter-spacing:0.01em;}.d{fill:#f7686c;}</style></defs><g transform="translate(-222 -564)"><circle class="a" cx="74" cy="74" r="74" transform="translate(222 564)"/><circle class="b" cx="19" cy="19" r="19" transform="translate(222 564)"/><text class="c" transform="translate(236 591)"><tspan x="0" y="0">1</tspan></text><g transform="translate(1179.205 -1476.906)"><path class="b" d="M-836.193,2098.026c0-.018-.01-.033-.011-.051a1.72,1.72,0,0,0-.067-.333,1.686,1.686,0,0,0-.088-.328c-.008-.016-.006-.034-.014-.05l-9.164-18.41a1.738,1.738,0,0,0-.153-.2,1.6,1.6,0,0,0-.224-.287,1.611,1.611,0,0,0-.274-.185,1.64,1.64,0,0,0-.278-.158,1.654,1.654,0,0,0-.366-.074,1.72,1.72,0,0,0-.237-.048h-72.366c-.011,0-.02.007-.031.007a1.694,1.694,0,0,0-.607.122c-.021.008-.04.018-.06.027a1.693,1.693,0,0,0-.487.328c-.017.017-.031.034-.048.051a1.7,1.7,0,0,0-.3.421l-9.059,18.409a.4.4,0,0,0-.012.047,1.6,1.6,0,0,0-.087.329,1.7,1.7,0,0,0-.068.332c0,.017-.009.03-.009.047a10.775,10.775,0,0,0,9.059,10.619v32.126a2.977,2.977,0,0,0-2.454,2.924v4.594a2.981,2.981,0,0,0,2.978,2.977h74.846a2.98,2.98,0,0,0,2.977-2.977V2143.7a2.977,2.977,0,0,0-2.454-2.924v-32.126A10.776,10.776,0,0,0-836.193,2098.026Zm-10.77,7.349a7.357,7.357,0,0,1-7.349-7.349c0-.013-.007-.025-.007-.038a1.731,1.731,0,0,0-.066-.458l-4.906-16.2h11.163l8.495,17.065A7.351,7.351,0,0,1-846.963,2105.375Zm-6.086,35.343v-17.494a12.045,12.045,0,0,0-12.032-12.032,12.046,12.046,0,0,0-12.033,12.032v17.494h-40.611v-32.073a10.771,10.771,0,0,0,7.348-4.818,10.764,10.764,0,0,0,9.059,4.967,10.762,10.762,0,0,0,9.059-4.967,10.764,10.764,0,0,0,9.06,4.967,10.762,10.762,0,0,0,9.059-4.967,10.762,10.762,0,0,0,9.059,4.967,10.764,10.764,0,0,0,9.059-4.967,10.771,10.771,0,0,0,7.348,4.818v32.073Zm-3.421,7.128h-17.223v-24.622a8.621,8.621,0,0,1,8.612-8.612,8.621,8.621,0,0,1,8.611,8.612Zm-35.5-66.52-1.984,16.5c-.006.053,0,.1,0,.158,0,.016-.009.03-.009.046a7.357,7.357,0,0,1-7.349,7.349,7.352,7.352,0,0,1-7.337-7.132l5.121-16.917Zm14.1,0,2.017,16.771a7.355,7.355,0,0,1-7.345,7.278,7.355,7.355,0,0,1-7.345-7.278l2.017-16.771Zm15.006,0,5.121,16.917a7.352,7.352,0,0,1-7.337,7.132,7.358,7.358,0,0,1-7.349-7.349c0-.016-.009-.03-.009-.046,0-.053,0-.1,0-.158l-1.984-16.5Zm-63.9,17.061,8.4-17.061h11.263l-4.906,16.2a1.688,1.688,0,0,0-.065.458c0,.013-.008.025-.008.038a7.357,7.357,0,0,1-7.348,7.349A7.352,7.352,0,0,1-926.766,2098.387Zm6.588,45.751h43.064v3.708h-43.064Zm73.958,3.708h-6.829v-3.708h6.829Z"/><path class="d" d="M-886.334,2127.9h-.7v-12.083a2.98,2.98,0,0,0-2.977-2.977h-14.815a2.98,2.98,0,0,0-2.977,2.977V2127.9h-.7a1.711,1.711,0,0,0-1.711,1.71,1.711,1.711,0,0,0,1.711,1.71h22.171a1.71,1.71,0,0,0,1.71-1.71A1.71,1.71,0,0,0-886.334,2127.9Zm-18.049,0v-11.64h13.927v11.64Z"/><path class="d" d="M-894.138,2133.98h-11.956a1.711,1.711,0,0,0-1.71,1.71,1.71,1.71,0,0,0,1.71,1.71h11.956a1.71,1.71,0,0,0,1.71-1.71A1.71,1.71,0,0,0-894.138,2133.98Z"/><path class="d" d="M-887.8,2134.268a1.211,1.211,0,0,0-.291-.152,1.524,1.524,0,0,0-.317-.1,1.7,1.7,0,0,0-1.545.469,1.731,1.731,0,0,0-.508,1.2,1.7,1.7,0,0,0,.508,1.216,1.83,1.83,0,0,0,.557.368,1.584,1.584,0,0,0,.646.127,1.747,1.747,0,0,0,1.216-.495,1.744,1.744,0,0,0,.494-1.216,1.717,1.717,0,0,0-.494-1.2A1.351,1.351,0,0,0-887.8,2134.268Z"/></g></g></svg>