<svg xmlns="http://www.w3.org/2000/svg" viewBox="0 0 463.14 81.73"><defs><style>.cls-1{isolation:isolate;}.cls-2{fill:#262626;}.cls-3{fill:#d2dff6;}.cls-4{fill:#f3c074;}.cls-5{fill:#f93d38;}.cls-6{fill:#00beab;}.cls-7{fill:#8eafe8;}.cls-7,.cls-8,.cls-9{opacity:0.3;mix-blend-mode:multiply;}.cls-8{fill:#bb2e2a;}.cls-9{fill:#008f80;}.cls-10{fill:#f49d9d;opacity:0.7;}.cls-11{fill:#61dbcc;opacity:0.8;}</style></defs><g class="cls-1"><g id="Layer_2" data-name="Layer 2"><g id="Layer_1-2" data-name="Layer 1"><path class="cls-2" d="M25.57,54c-1-2.64-2-5.22-3-7.72s-2-5-2.95-7.36-2-4.79-2.95-7.17a2.15,2.15,0,0,0-.89-1.07,2.39,2.39,0,0,0-2.5,0,2.09,2.09,0,0,0-.88,1.07c-1,2.38-2.1,4.92-3.18,7.55S7.06,44.52,6,47.16s-2,5.2-3,7.76-1.92,5-2.8,7.31a2.3,2.3,0,0,0,1.23,3,2.16,2.16,0,0,0,.85.18,2.34,2.34,0,0,0,.91-.2A2.46,2.46,0,0,0,4.42,64c.65-1.54,1.28-3.12,1.87-4.69s1.18-3,1.8-4.53H20.87c.62,1.49,1.24,3,1.82,4.53s1.25,3.16,1.89,4.68a2.26,2.26,0,0,0,1.21,1.31,2.19,2.19,0,0,0,1.79,0A2.35,2.35,0,0,0,28.81,64a2.21,2.21,0,0,0,0-1.78C27.68,59.41,26.6,56.68,25.57,54Zm-6.5-3.87H10q.9-2.25,1.77-4.48c.62-1.59,1.26-3.2,1.91-4.8.2-.46.38-.91.55-1.35.1-.26.21-.52.32-.78L16.2,43l1.93,4.82c.17.45.35.9.54,1.34Z"/><path class="cls-2" d="M56.62,39.1a19,19,0,0,0-2.73-3.59h0a17.39,17.39,0,0,0-12.43-5.12H35.71a2.24,2.24,0,0,0-1.37.55,2.43,2.43,0,0,0-.76,1.24,2.35,2.35,0,0,0-.07.7c0,.21,0,.41,0,.6V63.23a1.48,1.48,0,0,0,.1.56A2.15,2.15,0,0,0,34.49,65a2.42,2.42,0,0,0,1.41.42h5.56a17.58,17.58,0,0,0,14-6.92,15.78,15.78,0,0,0,2.07-3.47,18.25,18.25,0,0,0,1.19-3.83,19,19,0,0,0,.3-4,16.69,16.69,0,0,0-.63-4A17.38,17.38,0,0,0,56.62,39.1ZM54.07,51.36a12.17,12.17,0,0,1-3.37,5.78A12.74,12.74,0,0,1,41.5,61H38.1V34.87h3.36a13,13,0,0,1,5.8,1.35A13.23,13.23,0,0,1,51.86,40a12.85,12.85,0,0,1,2.21,11.37Z"/><path class="cls-2" d="M93.87,35.18a18,18,0,0,0-5.64-3.87,17.82,17.82,0,0,0-13.94,0,18,18,0,0,0-5.63,3.87,18.16,18.16,0,0,0-3.78,5.72,18.13,18.13,0,0,0,3.78,19.71,18.24,18.24,0,0,0,5.63,3.85,17.82,17.82,0,0,0,13.94,0,17.83,17.83,0,0,0,9.42-9.54,18.49,18.49,0,0,0,0-14A18.16,18.16,0,0,0,93.87,35.18Zm.59,12.73a13.84,13.84,0,0,1-1,5.16,12.64,12.64,0,0,1-2.85,4.34,13,13,0,0,1-4.29,2.91,13.45,13.45,0,0,1-10.18,0,13,13,0,0,1-4.27-2.92A12.8,12.8,0,0,1,69,53.07a14.29,14.29,0,0,1,0-10.35,13.28,13.28,0,0,1,2.85-4.35,13.57,13.57,0,0,1,4.28-2.9,13.19,13.19,0,0,1,10.17,0,13.41,13.41,0,0,1,4.29,2.89,13.11,13.11,0,0,1,2.85,4.36A13.81,13.81,0,0,1,94.46,47.91Z"/><path class="cls-2" d="M121.8,35.2a9.88,9.88,0,0,0-2.13-2.43A10.16,10.16,0,0,0,116.52,31a10.8,10.8,0,0,0-3.58-.63H105.8a2.38,2.38,0,0,0-1.53.64,2.3,2.3,0,0,0-.74,1.48V62.94a2.83,2.83,0,0,0,.35,1.41,2.3,2.3,0,0,0,1.92,1.1,2.26,2.26,0,0,0,.87-.18,2.33,2.33,0,0,0,1.24-1.17,2.43,2.43,0,0,0,.17-.74c0-.24,0-.5,0-.76V51.4h4.84a10.33,10.33,0,0,0,3.19-.5A11,11,0,0,0,119,49.49a10.64,10.64,0,0,0,2.3-2.2,10.25,10.25,0,0,0,1.56-2.8,10.39,10.39,0,0,0,.63-3.19,9.92,9.92,0,0,0-.37-3.17A10.94,10.94,0,0,0,121.8,35.2ZM119,42.48a6.15,6.15,0,0,1-2,3.18,6,6,0,0,1-4,1.47H108.1V34.6h4.84a6,6,0,0,1,3.57,1.14,6.4,6.4,0,0,1,2.31,3A6.26,6.26,0,0,1,119,42.48Z"/><path class="cls-2" d="M150.58,31.55a2.44,2.44,0,0,0-.78-.85,2.12,2.12,0,0,0-1.18-.33H128.48a2.33,2.33,0,0,0-1,.18,2.16,2.16,0,0,0-1.22,1.06,2.18,2.18,0,0,0-.17,1.62,2,2,0,0,0,.85,1.24,2.78,2.78,0,0,0,1.41.46h7.83V62.21c0,.38,0,.75,0,1.14a2.15,2.15,0,0,0,.41,1.17,2.07,2.07,0,0,0,.86.72,2.35,2.35,0,0,0,1,.21h.1a2.48,2.48,0,0,0,1-.28,2.19,2.19,0,0,0,.84-.79,2.15,2.15,0,0,0,.34-1.15V34.93h7.34a5.17,5.17,0,0,0,1.34-.17,1.94,1.94,0,0,0,1.12-.91,2.32,2.32,0,0,0,.33-1.18A2.27,2.27,0,0,0,150.58,31.55Z"/><path class="cls-2" d="M307.2,58.14c-.35-1.34-.75-2.88-1.18-4.6s-.9-3.5-1.38-5.34-.95-3.65-1.42-5.46L302,37.83c-.38-1.47-.71-2.72-1-3.73s-.42-1.66-.48-1.94h0a2,2,0,0,0-.82-1.24,2.54,2.54,0,0,0-1.29-.47,2.19,2.19,0,0,0-1.33.33,2.16,2.16,0,0,0-.93,1.14c-.14.37-.37,1-.7,1.78s-.69,1.77-1.1,2.86L293,40.11c-.49,1.28-1,2.56-1.44,3.83-1.05,2.77-2.21,5.89-3.46,9.3q-2-5.35-3.67-9.77c-.5-1.32-1-2.63-1.48-3.93S282,37.06,281.61,36s-.75-2-1-2.69-.45-1.21-.53-1.4a2.16,2.16,0,0,0-.93-1.14,2.19,2.19,0,0,0-1.33-.33,2.54,2.54,0,0,0-1.29.47,2,2,0,0,0-.82,1.24c-.14.56-.36,1.42-.67,2.58s-.66,2.5-1,4-.8,3.13-1.25,4.87-.91,3.48-1.36,5.23-.89,3.43-1.31,5-.8,3-1.12,4.3l-.79,3c-.23.9-.29,1.15-.3,1.24a2.43,2.43,0,0,0-.08,1.3,2.14,2.14,0,0,0,.89,1.27,2.45,2.45,0,0,0,2.71,0,2.24,2.24,0,0,0,.86-1.29c.09-.4.25-1.06.49-1.94s.51-2,.82-3.18.65-2.53,1-3.94l1.1-4.23c.85-3.2,1.74-6.62,2.65-10.17,1.26,3.39,2.42,6.47,3.45,9.17.48,1.27.95,2.52,1.42,3.75s.89,2.35,1.27,3.37.7,1.87.95,2.58.43,1.17.51,1.36a2.21,2.21,0,0,0,.91,1.14,2.34,2.34,0,0,0,2.54,0,2,2,0,0,0,.87-1.11c.11-.34.32-.9.61-1.68s.65-1.71,1.06-2.75.84-2.19,1.29-3.42.92-2.46,1.4-3.7c1-2.66,2.12-5.6,3.29-8.75,1,4,1.93,7.56,2.77,10.71.36,1.47.74,2.92,1.12,4.35s.72,2.73,1,3.91.55,2.19.76,3l.4,1.57A2.18,2.18,0,0,0,305,65.17a2.3,2.3,0,0,0,1.16.32,2.62,2.62,0,0,0,.61-.08,2.18,2.18,0,0,0,1.38-1.07,2.11,2.11,0,0,0,.2-1.73C307.94,61,307.56,59.48,307.2,58.14Z"/><path class="cls-2" d="M332.3,30.54a2.19,2.19,0,0,0-2.26.25,3,3,0,0,0-.46.49l-.38.49c-.17.22-.41.57-.73,1s-.67,1-1.09,1.54-.88,1.2-1.36,1.87-.95,1.32-1.4,2c-1.08,1.49-2.22,3.1-3.4,4.81L318,38.5l-1.36-1.86-1.27-1.76c-.39-.54-.73-1-1-1.47s-.53-.78-.7-1-.39-.58-.59-.88a2.69,2.69,0,0,0-.84-.84,2.21,2.21,0,0,0-2.11-.13,2.43,2.43,0,0,0-.88.66,2.07,2.07,0,0,0-.16,2.5c.24.38.48.77.72,1.14,0,0,.09.15.52.72.29.39.66.89,1.09,1.5s.93,1.29,1.46,2.05,1.09,1.54,1.66,2.33c1.31,1.82,2.78,3.88,4.4,6.16V62.71a5.34,5.34,0,0,0,.07.89,1.79,1.79,0,0,0,.35.85,2,2,0,0,0,.87.77,2.16,2.16,0,0,0,.95.22h.09a2.51,2.51,0,0,0,1-.28,2.24,2.24,0,0,0,.83-.79,2.08,2.08,0,0,0,.34-.89,8.28,8.28,0,0,0,0-.9v-15c1.68-2.34,3.19-4.47,4.53-6.37l1.74-2.41,1.54-2.17q.7-1,1.17-1.65c.31-.45.5-.73.59-.84a2.5,2.5,0,0,0,.55-2A2.2,2.2,0,0,0,332.3,30.54Z"/><path class="cls-2" d="M368.35,53.56a11,11,0,0,0-.61-2,8.08,8.08,0,0,0-1.65-2.48,9.25,9.25,0,0,0-2.33-1.89A14.83,14.83,0,0,0,361,46a25.17,25.17,0,0,0-3.31-1A14.91,14.91,0,0,1,354.65,44l-.06-.05a6,6,0,0,1-.9-.63,3,3,0,0,1-.66-.84,5.42,5.42,0,0,1-.6-2,5.67,5.67,0,0,1,.24-2.16,5.89,5.89,0,0,1,.89-1.83,4.88,4.88,0,0,1,1.32-1.16,6.86,6.86,0,0,1,1.76-.65,8.12,8.12,0,0,1,3.4,0,7.26,7.26,0,0,1,1.56.58,3.49,3.49,0,0,1,1.24,1c.19.22.33.39.43.53a1.55,1.55,0,0,1,.18.32,2.52,2.52,0,0,0,.14.32l.16.33a1.69,1.69,0,0,0,.84.64,2,2,0,0,0,1,.1,2.14,2.14,0,0,0,1.74-1.07,2.07,2.07,0,0,0,.11-2,9.58,9.58,0,0,0-1.21-2,8.69,8.69,0,0,0-2.34-2,10.27,10.27,0,0,0-2.83-1.1,6.73,6.73,0,0,0-1.25-.24c-.41-.05-.85-.08-1.32-.11a16.53,16.53,0,0,0-2.86.26c-.49.15-1,.3-1.47.47a8.15,8.15,0,0,0-1.5.7A8.72,8.72,0,0,0,350,33.71,9.23,9.23,0,0,0,348.3,37a10.67,10.67,0,0,0-.39,3.77,9,9,0,0,0,.35,2c.11.31.24.63.36.94s.29.64.46.95a8.12,8.12,0,0,0,2.14,2.5,8.62,8.62,0,0,0,2.4,1.35c.84.31,1.72.59,2.6.83s1.74.49,2.6.74a11.06,11.06,0,0,1,2.43,1,7.81,7.81,0,0,1,1.46,1.09l.12.14a1.74,1.74,0,0,0,.16.18,5.29,5.29,0,0,1,.85,2,7.42,7.42,0,0,1,.15,1.14,7.14,7.14,0,0,1-.06,1.14,7.79,7.79,0,0,1-.29,1.07c-.06.16-.12.32-.19.49a2.67,2.67,0,0,1-.22.45,2.5,2.5,0,0,1-.25.4l-.31.39a4.44,4.44,0,0,1-1.21.92v0A10,10,0,0,1,360,61a7.35,7.35,0,0,1-3.33,0c-.31-.08-.58-.17-.83-.25a4,4,0,0,1-.74-.33,7.59,7.59,0,0,1-2-1.39,9.09,9.09,0,0,1-1.5-1.93A2.16,2.16,0,0,0,350.24,56a2.34,2.34,0,0,0-1.78.15,2.31,2.31,0,0,0-1.18,1.42,2.24,2.24,0,0,0,.19,1.79,12.07,12.07,0,0,0,5.62,5.36,11.87,11.87,0,0,0,2.42.87,12.51,12.51,0,0,0,2.85.34,11.68,11.68,0,0,0,4.24-.78,9,9,0,0,0,3.52-2.42,5.52,5.52,0,0,0,.63-.76c.17-.26.34-.53.52-.83a15.76,15.76,0,0,0,.78-1.79c.09-.31.16-.62.23-.91s.14-.61.2-.94a13,13,0,0,0,.13-1.92l-.09-1A5.89,5.89,0,0,0,368.35,53.56Z"/><path class="cls-2" d="M397.73,30.83a2.41,2.41,0,0,0-.94-.45,2.06,2.06,0,0,0-1.12.07,2.26,2.26,0,0,0-1.42,1.44,3.56,3.56,0,0,0-.12.62c0,.19,0,.39,0,.59V44.59H378.34V32.8a2.52,2.52,0,0,0-.82-1.89,2,2,0,0,0-2-.47,2.11,2.11,0,0,0-1.62,1.49,2.41,2.41,0,0,0-.09.64v30.8a2.21,2.21,0,0,0,1.7,2,2.27,2.27,0,0,0,.62.09,2.34,2.34,0,0,0,1.2-.35,2,2,0,0,0,.9-1.26,7,7,0,0,0,.14-1.4V49.15h15.77V62.67a4.31,4.31,0,0,0,.16,1.23,2.08,2.08,0,0,0,.79,1.09,2.19,2.19,0,0,0,1.64.4,2.15,2.15,0,0,0,1.49-.83,1.91,1.91,0,0,0,.44-1.07c0-.34,0-.69,0-1V32.68a2.25,2.25,0,0,0-.26-1.06A2.7,2.7,0,0,0,397.73,30.83Z"/><path class="cls-2" d="M433.51,35.21a18.09,18.09,0,0,0-5.63-3.86,17.77,17.77,0,0,0-13.92,0,17.84,17.84,0,0,0-9.41,9.58,18.12,18.12,0,0,0,3.78,19.69A18.21,18.21,0,0,0,414,64.46a17.77,17.77,0,0,0,13.92,0,18.21,18.21,0,0,0,5.63-3.84,18.33,18.33,0,0,0,3.78-19.69A18.27,18.27,0,0,0,433.51,35.21Zm.59,12.72a13.88,13.88,0,0,1-1,5.16A13.25,13.25,0,0,1,426,60.32a13.4,13.4,0,0,1-10.16,0,12.82,12.82,0,0,1-4.27-2.91,12.58,12.58,0,0,1-2.84-4.32,14.15,14.15,0,0,1,0-10.35,13.16,13.16,0,0,1,2.84-4.34,13.5,13.5,0,0,1,4.27-2.89,13.16,13.16,0,0,1,10.16,0,13.47,13.47,0,0,1,4.29,2.89,13.16,13.16,0,0,1,2.84,4.34A13.85,13.85,0,0,1,434.1,47.93Z"/><path class="cls-2" d="M462.76,38.14a11.41,11.41,0,0,0-1.3-2.93,10.09,10.09,0,0,0-2.13-2.43,10.4,10.4,0,0,0-3.14-1.8,10.55,10.55,0,0,0-3.58-.63h-7.13A2.41,2.41,0,0,0,444,31a2.25,2.25,0,0,0-.74,1.47V62.92a2.9,2.9,0,0,0,.35,1.42,2.08,2.08,0,0,0,1.12.93,2,2,0,0,0,.79.16,2.35,2.35,0,0,0,.88-.18,2.27,2.27,0,0,0,1.23-1.17,2.17,2.17,0,0,0,.17-.74c0-.24,0-.5,0-.76V51.39h4.84a10.37,10.37,0,0,0,3.19-.49,11.24,11.24,0,0,0,2.84-1.41,11.09,11.09,0,0,0,2.3-2.19,10.58,10.58,0,0,0,1.56-2.81,11,11,0,0,0,.63-3.18A10.21,10.21,0,0,0,462.76,38.14Zm-4.14,4.34a6.08,6.08,0,0,1-2,3.18,6,6,0,0,1-4,1.47h-4.84V34.62h4.84a6,6,0,0,1,3.56,1.14,6.37,6.37,0,0,1,2.31,3A6.23,6.23,0,0,1,458.62,42.48Z"/><rect class="cls-3" x="236.73" y="66.83" width="5.09" height="2.62"/><rect class="cls-3" x="183.75" y="66.83" width="33.69" height="2.62"/><path class="cls-3" d="M234.24,35.14a8.64,8.64,0,0,1-14.3,0,8.64,8.64,0,0,1-14.3,0,8.64,8.64,0,0,1-14.3,0,8.66,8.66,0,0,1-5.65,3.65v25h31.75V50.17a9.65,9.65,0,1,1,19.29,0V63.83h3.16v-25A8.66,8.66,0,0,1,234.24,35.14ZM204.15,61.51h-9.43a1.5,1.5,0,0,1,0-3h9.43a1.5,1.5,0,1,1,0,3Zm5.32-.44a1.5,1.5,0,0,1-2.12,0,1.52,1.52,0,0,1-.44-1.06,1.5,1.5,0,0,1,.44-1.06,1.55,1.55,0,0,1,2.12,0,1.5,1.5,0,0,1,.44,1.06A1.52,1.52,0,0,1,209.47,61.07Zm.84-4.36h-17.5a1.5,1.5,0,0,1,0-3h.41V44.32a2.5,2.5,0,0,1,2.5-2.5h11.69a2.5,2.5,0,0,1,2.5,2.5v9.39h.4a1.5,1.5,0,0,1,0,3Z"/><rect class="cls-4" x="196.22" y="44.82" width="10.69" height="8.89"/><path class="cls-5" d="M240.4,18,247,30.62a5.64,5.64,0,0,1-11.28-.34s0-.05,0-.07a.88.88,0,0,0,0-.16.8.8,0,0,0,0-.15.17.17,0,0,1,0-.07L231.89,18Z"/><path class="cls-6" d="M228.74,18l4,12.5a5.65,5.65,0,0,1-11.29-.2s0-.06,0-.09a.38.38,0,0,0,0-.1L219.89,18Z"/><path class="cls-5" d="M216.87,18l1.56,12.37a5.65,5.65,0,0,1-11.29,0L208.71,18Z"/><path class="cls-6" d="M204.15,30.09a.33.33,0,0,0,0,.1.28.28,0,0,0,0,.09,5.65,5.65,0,0,1-11.29.2l4-12.5h8.85Z"/><path class="cls-5" d="M193.68,18l-3.77,11.85s0,.05,0,.07l0,.15c0,.05,0,.11,0,.16v.07a5.65,5.65,0,0,1-11.29.34L185.1,18Z"/><path class="cls-2" d="M209.47,59a1.5,1.5,0,0,1,.44,1.06,1.52,1.52,0,0,1-.44,1.06,1.5,1.5,0,0,1-2.12,0,1.52,1.52,0,0,1-.44-1.06,1.5,1.5,0,0,1,.44-1.06A1.55,1.55,0,0,1,209.47,59Z"/><path class="cls-2" d="M204.15,58.51a1.5,1.5,0,1,1,0,3h-9.43a1.5,1.5,0,0,1,0-3Z"/><path class="cls-2" d="M196.22,53.71h10.69V44.82H196.22Zm-3,0V44.32a2.5,2.5,0,0,1,2.5-2.5h11.69a2.5,2.5,0,0,1,2.5,2.5v9.39h.4a1.5,1.5,0,0,1,0,3h-17.5a1.5,1.5,0,0,1,0-3Z"/><rect class="cls-7" x="182.4" y="68.14" width="60.74" height="2.8"/><polygon class="cls-8" points="195.15 19.03 182.4 19.03 183.89 16.23 195.15 16.23 195.15 19.03"/><polygon class="cls-8" points="218.18 19.03 207.15 19.03 208.45 16.23 218.18 16.23 218.18 19.03"/><polygon class="cls-8" points="241.85 19.03 230.82 19.03 232.11 16.23 241.85 16.23 241.85 19.03"/><polygon class="cls-9" points="229.46 19.03 218.43 19.03 219.72 16.23 229.46 16.23 229.46 19.03"/><polygon class="cls-9" points="207.07 19.03 196.04 19.03 197.34 16.23 207.07 16.23 207.07 19.03"/><path class="cls-4" d="M233.73,50.17V69.45H220.44V50.17a6.65,6.65,0,1,1,13.29,0Z"/><path class="cls-10" d="M178.58,30.57l0,.05a5.64,5.64,0,0,0,11.27-.05Z"/><path class="cls-10" d="M207.18,30.57l0,.05a5.65,5.65,0,0,0,11.28-.05Z"/><path class="cls-10" d="M235.77,30.62l0,.05A5.65,5.65,0,0,0,247,30.62Z"/><path class="cls-11" d="M221.47,30.57l0,.05a5.64,5.64,0,0,0,11.27-.05Z"/><path class="cls-11" d="M192.88,30.57l0,.05a5.64,5.64,0,0,0,11.27-.05Z"/><path class="cls-7" d="M241.85,38a5.65,5.65,0,0,1-6.23-5.62,1.5,1.5,0,1,0-3,0,5.65,5.65,0,0,1-11.3,0,1.5,1.5,0,0,0-3,0,5.65,5.65,0,0,1-11.3,0,1.5,1.5,0,0,0-3,0,5.65,5.65,0,1,1-11.3,0,1.5,1.5,0,0,0-3,0,5.66,5.66,0,0,1-5.65,5.65l.38,3a8.64,8.64,0,0,0,6.77-3.76,8.64,8.64,0,0,0,14.3,0,8.64,8.64,0,0,0,14.3,0,8.64,8.64,0,0,0,14.3,0,8.66,8.66,0,0,0,7.15,3.79l.58,0Z"/><path class="cls-2" d="M235.74,30.28a5.64,5.64,0,0,0,11.28.34L240.4,18h-8.51l3.78,11.85a.17.17,0,0,0,0,.07.8.8,0,0,1,0,.15.88.88,0,0,1,0,.16S235.74,30.26,235.74,30.28Zm6.08,36.55h-5.09v2.62h5.09Zm-31.47,11a3.79,3.79,0,0,0,4.87,0c2.17-1.9,4.26-3.69,6.2-5.36H204.15C206.16,74.17,208.22,76,210.35,77.81Zm8.08-47.46L216.87,18h-8.16l-1.57,12.37a5.65,5.65,0,0,0,11.29,0Zm15.3,19.82a6.65,6.65,0,1,0-13.29,0V69.45h13.29Zm-6.64-14.24a5.65,5.65,0,0,0,5.64-5.45l-4-12.5h-8.85l1.53,12.11a.38.38,0,0,1,0,.1s0,.06,0,.09A5.65,5.65,0,0,0,227.09,35.93Zm-48.54-5.31a5.65,5.65,0,0,0,11.29-.34v-.07c0-.05,0-.11,0-.16l0-.15s0,0,0-.07L193.68,18H185.1Zm38.89,36.21H183.75v2.62h33.69ZM206.25,7.49a20.78,20.78,0,0,0-13-4.49,22.31,22.31,0,0,0-16.6,7.22A26.16,26.16,0,0,0,170,28.09c0,7.12,2.68,13.66,8.43,20.6,1.22,1.47,2.62,3,4.22,4.64V38.79a8.65,8.65,0,0,1-7.15-8.51v-.05a.78.78,0,0,1,0-.16.59.59,0,0,1,0-.14.78.78,0,0,1,0-.14.88.88,0,0,1,.05-.15.08.08,0,0,0,0-.05l7.15-13.8.05-.06a.67.67,0,0,1,.09-.14.39.39,0,0,1,.08-.1,1.14,1.14,0,0,1,.11-.11l.11-.09.12-.09.12-.06.15-.06.12,0,.15,0,.15,0h57.28l.16,0a.35.35,0,0,1,.14,0l.13,0a.59.59,0,0,1,.14.06l.13.06.12.08.11.1.1.1.09.11.09.13s0,0,0,.07l7.24,13.8a.17.17,0,0,0,0,.05l.06.15s0,.09,0,.14a.59.59,0,0,1,0,.13,1,1,0,0,1,0,.17s0,0,0,.05a8.66,8.66,0,0,1-7.15,8.51V53.33c1.59-1.63,3-3.17,4.21-4.64,5.75-6.94,8.43-13.48,8.43-20.6a26.16,26.16,0,0,0-6.62-17.87A22.31,22.31,0,0,0,232.31,3a20.74,20.74,0,0,0-13,4.49A26.92,26.92,0,0,0,214,13.05a1.56,1.56,0,0,1-2.43,0A26.88,26.88,0,0,0,206.25,7.49Zm-7.76,31.44a8.62,8.62,0,0,1-7.15-3.79,8.66,8.66,0,0,1-5.65,3.65v25h31.75V50.17a9.65,9.65,0,1,1,19.29,0V63.83h3.16v-25a8.66,8.66,0,0,1-5.65-3.65,8.64,8.64,0,0,1-14.3,0,8.64,8.64,0,0,1-14.3,0A8.64,8.64,0,0,1,198.49,38.93Zm-5.64-8.45a5.65,5.65,0,0,0,11.29-.2.28.28,0,0,1,0-.09.33.33,0,0,1,0-.1L205.68,18h-8.85ZM193.26,0a23.72,23.72,0,0,1,14.82,5.11,29.6,29.6,0,0,1,4.71,4.6,29.13,29.13,0,0,1,4.7-4.6A23.74,23.74,0,0,1,232.31,0a25.27,25.27,0,0,1,18.8,8.19,29.09,29.09,0,0,1,7.42,19.9c0,7.86-2.9,15-9.12,22.52a89.62,89.62,0,0,1-6.52,7V63.9a2.49,2.49,0,0,1,1.93,2.43V70a2.5,2.5,0,0,1-2.5,2.5H226c-2.61,2.23-5.65,4.83-8.85,7.62a6.67,6.67,0,0,1-8.81,0c-3.08-2.69-6-5.23-8.85-7.62H183.25a2.5,2.5,0,0,1-2.5-2.5V66.33a2.49,2.49,0,0,1,1.94-2.43V57.56a88,88,0,0,1-6.53-7C169.94,43.1,167,36,167,28.09a29.14,29.14,0,0,1,7.42-19.9A25.27,25.27,0,0,1,193.26,0Z"/></g></g></g></svg>