<svg xmlns="http://www.w3.org/2000/svg" width="111" height="110" viewBox="0 0 111 110"><defs><style>.a{fill:#fff;}.b{fill:#2f5fc7;}.c{fill:#f7686c;}</style></defs><g transform="translate(-138 -1520)"><ellipse class="a" cx="55.5" cy="55" rx="55.5" ry="55" transform="translate(138 1520)"/><g transform="translate(-532.328 248.043)"><path class="b" d="M741.639,1555.387l-8.542,4.387a4.068,4.068,0,0,0-2.895-1.207h-5.886a1.943,1.943,0,0,1-.387-.023c-.053-.036-.186-.161-.294-.263l-.056-.052c-4.792-4.512-8.84-4.226-13.444-2.409a3.033,3.033,0,0,1-1.449.317l-1.3,0a2.955,2.955,0,0,0-2.782-1.972h-4.331a2.954,2.954,0,0,0-2.949,2.953v11.359a2.952,2.952,0,0,0,2.949,2.949h4.331a2.954,2.954,0,0,0,2.782-1.97h2.381a3.4,3.4,0,0,1,.789.165l11.2,2.995c.49.133.94.263,1.376.39a14.207,14.207,0,0,0,3.93.773,8.623,8.623,0,0,0,4.9-1.766l.03-.021,13.809-9.833a3.977,3.977,0,0,0-4.167-6.774Zm-36.4,13.091a.638.638,0,0,1-.629.629h-4.331a.637.637,0,0,1-.628-.629V1557.12a.638.638,0,0,1,.628-.632h4.331a.639.639,0,0,1,.629.632Zm39.222-8.206-13.794,9.823c-2.808,1.868-4,1.521-6.882.685-.445-.129-.906-.263-1.42-.4l-11.2-3a5.524,5.524,0,0,0-1.389-.244h-2.214v-8.677l1.234-.005a5.159,5.159,0,0,0,2.195-.477c3.991-1.575,7.071-1.763,11,1.94l.056.052a2.708,2.708,0,0,0,2.272.917H730.2a1.759,1.759,0,1,1,0,3.517h-9.543a1.16,1.16,0,0,0,0,2.321H730.2a4.08,4.08,0,0,0,4-4.907l8.5-4.368a1.664,1.664,0,1,1,1.758,2.822Zm0,0" transform="translate(0 -217.42)"/><path class="c" d="M836.23,1324.4a3.765,3.765,0,0,0,.4,6.943v1.728a3.839,3.839,0,0,0,3.834,3.837h5.14a3.841,3.841,0,0,0,3.837-3.837v-1.728a3.765,3.765,0,0,0,.4-6.943,14.154,14.154,0,0,1,2.621-4.767c1.666-2.268,3.555-4.838,3.551-9.365,0-.4-.017-.819-.05-1.233a1.16,1.16,0,1,0-2.313.184c.028.353.042.706.042,1.05,0,3.767-1.5,5.818-3.1,7.99a15.807,15.807,0,0,0-3.052,5.762H838.53a15.8,15.8,0,0,0-3.052-5.762c-1.6-2.172-3.1-4.224-3.1-7.991a10.857,10.857,0,0,1,3.168-7.973,10.509,10.509,0,0,1,7.474-3.017h.033a10.5,10.5,0,0,1,6.361,2.065,1.16,1.16,0,0,0,1.38-1.866,13.162,13.162,0,0,0-16.875,1.164,13.187,13.187,0,0,0-3.861,9.623c-.006,4.53,1.884,7.1,3.551,9.368a14.161,14.161,0,0,1,2.621,4.766Zm10.892,8.671a1.519,1.519,0,0,1-1.517,1.517h-5.14a1.517,1.517,0,0,1-1.513-1.517v-1.517h8.17Zm-9.248-6.729H848.2a1.446,1.446,0,1,1,0,2.892H837.874a1.446,1.446,0,1,1,0-2.892Zm0,0" transform="translate(-112.197 0)"/><path class="b" d="M1031.864,1382.933h-4.712a1.16,1.16,0,1,0,0,2.32h4.712a1.16,1.16,0,1,0,0-2.32Zm0,0" transform="translate(-277.82 -72.675)"/><path class="b" d="M1014.547,1307.6a1.154,1.154,0,0,0,.645-.2l3.91-2.625a1.16,1.16,0,1,0-1.293-1.926l-3.91,2.624a1.16,1.16,0,0,0,.648,2.124Zm0,0" transform="translate(-267.164 -4.82)"/><path class="b" d="M1019.1,1449.059l-3.91-2.625a1.16,1.16,0,0,0-1.293,1.927l3.91,2.624a1.16,1.16,0,1,0,1.293-1.926Zm0,0" transform="translate(-267.165 -126.187)"/><path class="b" d="M757.624,1385.253h4.709a1.16,1.16,0,1,0,0-2.32h-4.709a1.16,1.16,0,1,0,0,2.32Zm0,0" transform="translate(-49.988 -72.675)"/><path class="b" d="M774.771,1304.783l3.91,2.625a1.16,1.16,0,0,0,1.293-1.927l-3.91-2.624a1.16,1.16,0,1,0-1.293,1.926Zm0,0" transform="translate(-65.029 -4.82)"/><path class="b" d="M778.681,1446.435l-3.91,2.625a1.16,1.16,0,1,0,1.293,1.926l3.91-2.624a1.16,1.16,0,0,0-1.293-1.927Zm0,0" transform="translate(-65.029 -126.187)"/><path class="c" d="M973.594,1338.04a1.16,1.16,0,1,0,0-1.644,1.154,1.154,0,0,0,0,1.644Zm0,0" transform="translate(-233.239 -33.05)"/></g></g></svg>