<svg xmlns="http://www.w3.org/2000/svg" width="148" height="148" viewBox="0 0 148 148"><defs><style>.a{fill:#e0faf6;}.b{fill:#2f5fc7;}.c{fill:#fff;font-size:22px;font-family:RobotoCondensed-Bold, Roboto Condensed;font-weight:700;letter-spacing:0.01em;}.d{fill:#f7686c;}</style></defs><g transform="translate(-566 -564)"><circle class="a" cx="74" cy="74" r="74" transform="translate(566 564)"/><circle class="b" cx="19" cy="19" r="19" transform="translate(566 564)"/><text class="c" transform="translate(580 591)"><tspan x="0" y="0">3</tspan></text><g transform="translate(1202.032 -1477.205)"><path class="b" d="M-519.335,2088.655l-1.708-6.442a5.414,5.414,0,0,0-6.622-3.822l-38.314,10.263H-605.6a5.414,5.414,0,0,0-5.428,5.389v41.3a5.435,5.435,0,0,0,5.286,5.426l1.708,6.441a5.427,5.427,0,0,0,5.22,4.009,5.391,5.391,0,0,0,1.4-.187l38.314-10.262h39.664a5.433,5.433,0,0,0,5.425-5.427v-41.306A5.484,5.484,0,0,0-519.335,2088.655Zm-50.7,52.152-1.953.52-.136-.52Zm45.072-59.446a2.622,2.622,0,0,1,1.2,1.587l1.527,5.706h-32.8l28.1-7.544h0A2.542,2.542,0,0,1-524.967,2081.361Zm-49.749,60.661-4.147,1.106-.648-2.358h4.453Zm-33.49-25.069v-5.633l19.607,19.606v5.634Zm0-19.694v-3.216a2.541,2.541,0,0,1,.675-1.742l13.945,13.945a8.248,8.248,0,0,0-2.232,3.4Zm19.607,8.363-.178-.142a3.091,3.091,0,0,0-1.87-.636,2.966,2.966,0,0,0-.35.021l-13.385-13.387h6.083l9.7,9.7Zm4,5.409a1.56,1.56,0,0,1,.978-.345,1.562,1.562,0,0,1,.978.345l.01.008a1.656,1.656,0,0,1,.645,1.12,1.56,1.56,0,0,1-.327,1.18,1.659,1.659,0,0,1-.318.319,1.622,1.622,0,0,1-2.3-.321A1.627,1.627,0,0,1-584.6,2111.031Zm-5.876,8.815a3.17,3.17,0,0,0,1.7-.629l2.382-1.914-.969,2.445a1.759,1.759,0,0,1-1.754,1.073A1.643,1.643,0,0,1-590.476,2119.846Zm4.7,2.457a5.337,5.337,0,0,0,1.016-1.527l1.134-2.861,1.135,2.864a4.653,4.653,0,0,0,1.016,1.524v15.642h-4.3Zm7.29-3.1a2.941,2.941,0,0,0,1.739.647,1.671,1.671,0,0,1-1.39.957,1.711,1.711,0,0,1-1.708-1.058l-.951-2.4Zm1.939-11.509a5.36,5.36,0,0,1,2.526,3.275,5.366,5.366,0,0,1-.528,4.1,4.553,4.553,0,0,1-.373.525l-.182.236a5.436,5.436,0,0,1-1.472,1.218.146.146,0,0,1-.15-.013l-3.04-2.432a4.514,4.514,0,0,0,0-4.484l3.039-2.433A.161.161,0,0,1-576.544,2107.7Zm-4.928.15-.422.346a4.512,4.512,0,0,0-1.729-.344,4.529,4.529,0,0,0-1.728.343l-.422-.345v-16.369h4.3Zm-6.01,6.726-3.046,2.436c-.049.043-.132.043-.242-.042a5.414,5.414,0,0,1-1.859-7.417,5.375,5.375,0,0,1,1.858-1.856l.022-.014a.251.251,0,0,1,.141-.039.214.214,0,0,1,.086.015l3.04,2.431A4.517,4.517,0,0,0-587.482,2114.573ZM-591,2123.2a4.608,4.608,0,0,0,2.4.459v3.331l-19.607-19.642v-6.086l12.016,12.017a7.61,7.61,0,0,0,2.17,4.621c.107.118.207.227.294.332C-593.578,2120.017-593.111,2122.146-591,2123.2Zm12.353.46a4.647,4.647,0,0,0,2.439-.461c2.063-1.032,2.533-3.147,2.684-4.931a8.127,8.127,0,0,0,2.506-5.58,8.219,8.219,0,0,0-2.179-5.931l-.112-.112a7.718,7.718,0,0,0-1.822-1.387,3.018,3.018,0,0,0-3.387.227l-.166.133v-14.143h59.169a2.6,2.6,0,0,1,2.6,2.6v41.74a2.6,2.6,0,0,1-2.564,2.161h-59.169Zm-3.474,18.4-2.19-1.251h1.86Zm-12.172-50.58h5.693v5.693Zm-2.975,46.5-10.939-10.936v-6.085l17.022,17.021Zm7.291,2.826,6.32,3.64-5.865,1.566-9.085-5.206Zm-11.3-2.826h-4.319a2.651,2.651,0,0,1-2.612-2.6v-4.329Zm7.867,9.056-4.743,1.277h0a2.543,2.543,0,0,1-1.962-.252,2.622,2.622,0,0,1-1.206-1.589l-1.275-4.708Z"/><path class="d" d="M-546.131,2125.891h1.05a.556.556,0,0,0,.541-.542v-.984a4.034,4.034,0,0,0,3.9-3.96,3.719,3.719,0,0,0-2.291-3.6,15.186,15.186,0,0,0-1.648-.621v-3.461a1.884,1.884,0,0,1,.829,1.183.506.506,0,0,0,.5.466h1.839a.492.492,0,0,0,.5-.5l0-.085a4.34,4.34,0,0,0-3.636-3.634v-1.159a.556.556,0,0,0-.541-.542h-1.05a.558.558,0,0,0-.543.542v1.1c-2.4.256-3.938,1.759-3.938,3.891,0,2.634,1.836,3.488,3.938,4.137v3.664a2.106,2.106,0,0,1-1.054-1.535.493.493,0,0,0-.5-.505h-1.8a.5.5,0,0,0-.5.534,4.557,4.557,0,0,0,3.862,3.983v1.089A.558.558,0,0,0-546.131,2125.891Zm-.618-13.432v2.945a6.928,6.928,0,0,1-.671-.42,1.3,1.3,0,0,1-.421-1.076A1.387,1.387,0,0,1-546.749,2112.459Zm3.3,7.987a1.591,1.591,0,0,1-1.13,1.56v-3.145A1.634,1.634,0,0,1-543.447,2120.446Z"/><path class="d" d="M-543.235,2128.808h-8.7a1.244,1.244,0,0,0-1.244,1.244,1.244,1.244,0,0,0,1.244,1.244h8.7a1.245,1.245,0,0,0,1.245-1.244A1.245,1.245,0,0,0-543.235,2128.808Z"/><path class="d" d="M-538.624,2129.018a.869.869,0,0,0-.211-.111,1.094,1.094,0,0,0-.231-.073,1.231,1.231,0,0,0-1.124.341,1.258,1.258,0,0,0-.369.874,1.238,1.238,0,0,0,.369.885,1.311,1.311,0,0,0,.405.267,1.147,1.147,0,0,0,.47.093,1.269,1.269,0,0,0,.885-.36,1.271,1.271,0,0,0,.36-.885,1.249,1.249,0,0,0-.36-.874A.988.988,0,0,0-538.624,2129.018Z"/><path class="d" d="M-544.379,2103.644v-3.629a1.244,1.244,0,0,0-1.244-1.244,1.244,1.244,0,0,0-1.244,1.244v3.629a1.244,1.244,0,0,0,1.244,1.244A1.244,1.244,0,0,0-544.379,2103.644Z"/><path class="d" d="M-548.584,2104.767l-2.566-2.566a1.244,1.244,0,0,0-1.759,0,1.243,1.243,0,0,0,0,1.759l2.566,2.566a1.243,1.243,0,0,0,1.759,0A1.243,1.243,0,0,0-548.584,2104.767Z"/><path class="d" d="M-542.661,2104.767l2.565-2.566a1.245,1.245,0,0,1,1.76,0,1.244,1.244,0,0,1,0,1.759l-2.565,2.566a1.244,1.244,0,0,1-1.76,0A1.244,1.244,0,0,1-542.661,2104.767Z"/></g></g></svg>