<svg xmlns="http://www.w3.org/2000/svg" width="62" height="55.386" viewBox="0 0 62 55.386"><defs><style>.a{fill:#f7686c;}</style></defs><path class="a" d="M1687.532,1262.939a1.015,1.015,0,0,1,.3.719,1.026,1.026,0,0,1-.3.718,1.014,1.014,0,0,1-1.437,0,1.026,1.026,0,0,1-.3-.718,1.015,1.015,0,0,1,.3-.719A1.049,1.049,0,0,1,1687.532,1262.939Z" transform="translate(-1658.778 -1222.991)"/><path class="a" d="M1679.514,1262.635a1.016,1.016,0,1,1,0,2.033h-6.39a1.016,1.016,0,1,1,0-2.033Z" transform="translate(-1654.365 -1222.984)"/><path class="a" d="M1673.524,1254h7.244v-6.025h-7.244Zm-2.033,0v-6.364a1.7,1.7,0,0,1,1.694-1.694h7.922a1.7,1.7,0,0,1,1.694,1.694V1254h.271a1.017,1.017,0,0,1,0,2.033h-11.86a1.017,1.017,0,0,1,0-2.033Z" transform="translate(-1653.75 -1217.605)"/><path class="a" d="M1692.483,1224.645a3.825,3.825,0,0,0,7.644.23l-4.486-8.566h-5.767l2.562,8.03a.117.117,0,0,0,.007.048.526.526,0,0,1,.02.1.577.577,0,0,1,.013.109C1692.476,1224.611,1692.483,1224.631,1692.483,1224.645Zm4.12,24.769h-3.449v1.775h3.449Zm-21.326,7.441a2.57,2.57,0,0,0,3.3,0c1.471-1.288,2.887-2.5,4.2-3.632h-11.7C1672.437,1254.388,1673.834,1255.594,1675.277,1256.855Zm5.475-32.162-1.057-8.383h-5.53l-1.064,8.383a3.826,3.826,0,0,0,7.651,0Zm10.369,13.432a4.5,4.5,0,1,0-9.006,0v13.065h9.006Zm-4.5-9.65a3.832,3.832,0,0,0,3.822-3.694l-2.7-8.471h-6l1.037,8.207a.256.256,0,0,1,.007.068c0,.02.007.041.007.061A3.829,3.829,0,0,0,1686.621,1228.474Zm-32.894-3.6a3.829,3.829,0,0,0,7.651-.23v-.047c.007-.034.007-.075.013-.109l.02-.1c.007-.014.007-.034.013-.048l2.555-8.03h-5.814Zm26.354,24.538h-22.831v1.775h22.831ZM1672.5,1209.2a14.084,14.084,0,0,0-8.8-3.043,15.121,15.121,0,0,0-11.249,4.893,17.727,17.727,0,0,0-4.486,12.11c0,4.825,1.816,9.257,5.713,13.96.827,1,1.776,2.04,2.86,3.144v-9.853a5.86,5.86,0,0,1-4.846-5.767v-.034a.534.534,0,0,1,.013-.109.375.375,0,0,1,.014-.095.5.5,0,0,1,.034-.1.612.612,0,0,1,.034-.1.052.052,0,0,0,.014-.034l4.845-9.352c.013-.014.02-.027.034-.041a.471.471,0,0,1,.061-.095.276.276,0,0,1,.054-.068.782.782,0,0,1,.075-.075c.027-.02.047-.041.074-.061l.081-.061.081-.041.1-.041a.39.39,0,0,1,.082-.027.542.542,0,0,1,.1-.02.528.528,0,0,1,.1-.013c.021,0,.041-.007.061-.007h38.7c.02,0,.04.007.054.007a.6.6,0,0,1,.109.013.244.244,0,0,1,.095.02.338.338,0,0,1,.088.027.39.39,0,0,1,.095.041c.034.014.061.027.088.041s.054.034.081.054a.671.671,0,0,1,.075.068.322.322,0,0,1,.068.068.657.657,0,0,1,.061.074c.02.027.041.061.061.088s.02.027.027.047l4.906,9.352a.115.115,0,0,0,.013.034l.041.1c.007.027.02.061.027.1a.4.4,0,0,1,.013.088.653.653,0,0,1,.014.115c0,.014.007.02.007.034a5.867,5.867,0,0,1-4.845,5.767v9.853c1.077-1.1,2.026-2.148,2.853-3.144,3.9-4.7,5.713-9.135,5.713-13.96a17.727,17.727,0,0,0-4.486-12.11,15.122,15.122,0,0,0-11.25-4.893,14.052,14.052,0,0,0-8.8,3.043,18.227,18.227,0,0,0-3.612,3.768,1.06,1.06,0,0,1-1.647,0A18.212,18.212,0,0,0,1672.5,1209.2Zm-5.259,21.306a4.969,4.969,0,0,0-8.674-.095v16.969h21.516v-9.257a6.536,6.536,0,1,1,13.073,0v9.257h2.141v-16.969a4.969,4.969,0,0,0-8.674.095,5.855,5.855,0,0,0-9.691,0,5.855,5.855,0,0,0-9.691,0Zm-3.822-5.726a3.827,3.827,0,0,0,7.651-.135.186.186,0,0,1,.007-.061.224.224,0,0,1,0-.068l1.037-8.207h-6Zm.278-20.655a16.072,16.072,0,0,1,10.043,3.463,20.066,20.066,0,0,1,3.192,3.117,19.752,19.752,0,0,1,3.185-3.117,16.086,16.086,0,0,1,10.043-3.463,17.127,17.127,0,0,1,12.74,5.55,19.71,19.71,0,0,1,5.028,13.485c0,5.327-1.965,10.172-6.18,15.262a60.727,60.727,0,0,1-4.419,4.71v4.3a1.688,1.688,0,0,1,1.308,1.647v2.453a1.7,1.7,0,0,1-1.694,1.694H1685.91c-1.769,1.511-3.829,3.273-6,5.164a4.523,4.523,0,0,1-5.97,0c-2.087-1.823-4.1-3.544-6-5.164h-11.033a1.7,1.7,0,0,1-1.694-1.694v-2.453a1.687,1.687,0,0,1,1.315-1.647v-4.3a59.617,59.617,0,0,1-4.425-4.71c-4.215-5.089-6.181-9.935-6.181-15.262a19.744,19.744,0,0,1,5.028-13.485A17.127,17.127,0,0,1,1663.7,1204.125Z" transform="translate(-1645.927 -1204.125)"/></svg>