<svg xmlns="http://www.w3.org/2000/svg" width="148" height="148" viewBox="0 0 148 148"><defs><style>.a{fill:#e0faf6;}.b{fill:#2f5fc7;}.c{fill:#fff;font-size:22px;font-family:RobotoCondensed-Bold, Roboto Condensed;font-weight:700;letter-spacing:0.01em;}.d{fill:#f7686c;}</style></defs><g transform="translate(-738 -564)"><circle class="a" cx="74" cy="74" r="74" transform="translate(738 564)"/><circle class="b" cx="19" cy="19" r="19" transform="translate(738 564)"/><text class="c" transform="translate(751 590)"><tspan x="0" y="0">4</tspan></text><g transform="translate(1218.626 -1475.951)"><path class="b" d="M-413.979,2151.06a1.679,1.679,0,0,0,1.178-.488,1.677,1.677,0,0,0,.488-1.177,1.679,1.679,0,0,0-.488-1.178,1.679,1.679,0,0,0-1.178-.488,1.676,1.676,0,0,0-1.177.488,1.679,1.679,0,0,0-.488,1.178,1.677,1.677,0,0,0,.488,1.177A1.676,1.676,0,0,0-413.979,2151.06Z"/><path class="b" d="M-390.432,2076.6h-10.454a1.666,1.666,0,0,0-1.665,1.666,1.665,1.665,0,0,0,1.665,1.665h10.454a1.665,1.665,0,0,0,1.666-1.665A1.666,1.666,0,0,0-390.432,2076.6Z"/><path class="b" d="M-377.364,2071.951h-36.589a6.028,6.028,0,0,0-6.021,6.022v11.5a42.975,42.975,0,0,0-11.488,14.429,42.949,42.949,0,0,0-4.336,18.752v17.415h-1.5a3.335,3.335,0,0,0-3.331,3.331v13.19a.633.633,0,0,0,.634.633h34.945a.632.632,0,0,0,.633-.633v-8.36h27.05a6.028,6.028,0,0,0,6.021-6.021V2121.77a1.666,1.666,0,0,0-1.666-1.666,1.666,1.666,0,0,0-1.665,1.666v12.3h-24.969l5.3-7.464a5.788,5.788,0,0,0,.424-6.03,5.789,5.789,0,0,0-5.163-3.145,5.854,5.854,0,0,0-3.472,1.151l-10.519,7.836a2.247,2.247,0,0,1-1.334.442,2.234,2.234,0,0,1-2.232-2.232v-40.015h41.969v23.309a1.665,1.665,0,0,0,1.665,1.665,1.665,1.665,0,0,0,1.666-1.665v-29.952A6.028,6.028,0,0,0-377.364,2071.951Zm-30.381,71.448v10.508H-437.3V2143.4Zm33.071-6v4.8a2.693,2.693,0,0,1-2.69,2.69h-27.05v-1.5a3.324,3.324,0,0,0-1.348-2.67,16.324,16.324,0,0,0,3.708-3.329c.022,0,.044,0,.067,0Zm-39.737-7.209a5.6,5.6,0,0,0,3.324-1.1l10.519-7.836a2.5,2.5,0,0,1,1.482-.491,2.438,2.438,0,0,1,2.2,1.342,2.437,2.437,0,0,1-.181,2.574l-7.028,9.9a13.037,13.037,0,0,1-10.615,5.483h-17.76v-17.415a39.088,39.088,0,0,1,12.493-28.775v30.753A5.569,5.569,0,0,0-414.411,2130.194Zm39.737-48.909h-41.969v-3.312a2.694,2.694,0,0,1,2.69-2.691h36.588a2.694,2.694,0,0,1,2.691,2.691Z"/><path class="b" d="M-395.659,2142.674a1.67,1.67,0,0,0,1.178-.488,1.676,1.676,0,0,0,.488-1.177,1.675,1.675,0,0,0-.488-1.177,1.68,1.68,0,0,0-1.178-.489,1.677,1.677,0,0,0-1.177.489,1.675,1.675,0,0,0-.488,1.177,1.671,1.671,0,0,0,.488,1.177A1.668,1.668,0,0,0-395.659,2142.674Z"/><path class="d" d="M-397.127,2093.992a1.665,1.665,0,0,0-2.275.609l-1.411,2.443h-4.55a3.659,3.659,0,0,0-2.847,1.352,3.657,3.657,0,0,0-.751,3.062l2.191,10.641a3.687,3.687,0,0,0,3.6,2.932h15.028a3.687,3.687,0,0,0,3.6-2.932l2.191-10.641a3.664,3.664,0,0,0-.751-3.062,3.661,3.661,0,0,0-2.847-1.352h-4.551l-1.41-2.443a1.665,1.665,0,0,0-2.275-.609,1.665,1.665,0,0,0-.61,2.275l.449.777h-2.615l.448-.777A1.666,1.666,0,0,0-397.127,2093.992Zm4.7,6.383h0l1.907,3.3a1.667,1.667,0,0,0,1.444.833,1.66,1.66,0,0,0,.831-.223,1.665,1.665,0,0,0,.61-2.275l-.946-1.638h2.628a.33.33,0,0,1,.265.126.332.332,0,0,1,.07.285l-2.19,10.641a.345.345,0,0,1-.336.273h-15.028a.342.342,0,0,1-.334-.273l-2.191-10.641a.332.332,0,0,1,.07-.285.331.331,0,0,1,.265-.126h2.627l-.945,1.638a1.666,1.666,0,0,0,.609,2.275,1.666,1.666,0,0,0,.832.223,1.665,1.665,0,0,0,1.444-.833l1.907-3.3Z"/><path class="b" d="M-373.009,2112.921a1.681,1.681,0,0,0-1.177.488,1.679,1.679,0,0,0-.488,1.178,1.674,1.674,0,0,0,.488,1.177,1.676,1.676,0,0,0,1.177.488,1.679,1.679,0,0,0,1.178-.488,1.674,1.674,0,0,0,.488-1.177,1.679,1.679,0,0,0-.488-1.178A1.684,1.684,0,0,0-373.009,2112.921Z"/></g></g></svg>