<svg xmlns="http://www.w3.org/2000/svg" width="148" height="148" viewBox="0 0 148 148"><defs><style>.a{fill:#e0faf6;}.b,.e{fill:none;}.b{stroke:#000;stroke-linecap:round;stroke-linejoin:round;}.c{fill:#2f5fc7;}.d{fill:#fff;font-size:22px;font-family:RobotoCondensed-Bold, Roboto Condensed;font-weight:700;letter-spacing:0.01em;}.f{fill:#f7686c;}</style></defs><g transform="translate(-910 -564)"><circle class="a" cx="74" cy="74" r="74" transform="translate(910 564)"/><path class="b" d="M1735.758,3044.36" transform="translate(-725.744 -2409.032)"/><path class="b" d="M1680.884,3005.719" transform="translate(-725.744 -2410.032)"/><circle class="c" cx="19" cy="19" r="19" transform="translate(910 564)"/><text class="d" transform="translate(924 591)"><tspan x="0" y="0">5</tspan></text><g transform="translate(265.39 -1008.814)"><path class="e" d="M705.06,1641.744a5.657,5.657,0,0,0,5.65-5.65.278.278,0,0,1,.01-.09.335.335,0,0,1,0-.1l1.53-12.11H703.4l-3.98,12.5A5.642,5.642,0,0,0,705.06,1641.744Z"/><path class="e" d="M696.41,1636.094v-.07c.01-.05.01-.11.02-.16l.03-.15c.01-.02.01-.05.02-.07l3.77-11.85h-8.58l-6.55,12.64a5.65,5.65,0,0,0,11.29-.34Z"/><path class="e" d="M733.66,1649.334a6.66,6.66,0,0,0-6.65,6.65v19.28H740.3v-19.28A6.658,6.658,0,0,0,733.66,1649.334Z"/><rect class="e" width="33.69" height="2.62" transform="translate(690.32 1672.644)"/><path class="e" d="M753.67,1654.5c5.75-6.94,8.43-13.48,8.43-20.6a26.159,26.159,0,0,0-6.62-17.87,22.314,22.314,0,0,0-16.6-7.22,20.736,20.736,0,0,0-12.98,4.49,26.921,26.921,0,0,0-5.33,5.56,1.563,1.563,0,0,1-2.43,0,26.88,26.88,0,0,0-5.32-5.56,20.785,20.785,0,0,0-12.99-4.49,22.314,22.314,0,0,0-16.6,7.22,26.16,26.16,0,0,0-6.62,17.87c0,7.12,2.68,13.66,8.43,20.6,1.22,1.47,2.62,3.01,4.22,4.64V1644.6a8.648,8.648,0,0,1-7.15-8.51v-.05a.776.776,0,0,1,.02-.16.59.59,0,0,1,.02-.14.778.778,0,0,1,.05-.14.879.879,0,0,1,.05-.15.076.076,0,0,0,.02-.05l7.15-13.8c.02-.02.03-.04.05-.06a.672.672,0,0,1,.09-.14.392.392,0,0,1,.08-.1,1.153,1.153,0,0,1,.11-.11c.04-.03.07-.06.11-.09l.12-.09.12-.06.15-.06a.563.563,0,0,1,.12-.04.8.8,0,0,1,.15-.03.771.771,0,0,1,.15-.02c.03,0,.06-.01.09-.01h57.11c.03,0,.06.01.08.01a.874.874,0,0,1,.16.02.353.353,0,0,1,.14.03.5.5,0,0,1,.13.04.587.587,0,0,1,.14.06c.05.02.09.04.13.06s.08.05.12.08a1.007,1.007,0,0,1,.11.1.476.476,0,0,1,.1.1,1.064,1.064,0,0,1,.09.11c.03.04.06.09.09.13.01.03.03.04.04.07l7.24,13.8a.17.17,0,0,0,.02.05l.06.15c.01.04.03.09.04.14a.585.585,0,0,1,.02.13.983.983,0,0,1,.02.17c0,.02.01.03.01.05a8.657,8.657,0,0,1-7.15,8.51v14.54C751.05,1657.514,752.45,1655.974,753.67,1654.5Z"/><path class="e" d="M716.92,1683.624a3.793,3.793,0,0,0,4.87,0c2.17-1.9,4.26-3.69,6.2-5.36H710.72C712.73,1679.984,714.79,1681.764,716.92,1683.624Z"/><path class="e" d="M742.25,1635.714a.8.8,0,0,1,.03.15.879.879,0,0,1,.02.16c0,.02.01.05.01.07a5.645,5.645,0,0,0,11.28.34l-6.62-12.64h-8.51l3.78,11.85A.17.17,0,0,0,742.25,1635.714Z"/><path class="e" d="M728,1636c0,.03.01.06.01.09a5.647,5.647,0,0,0,11.29.2l-3.99-12.5h-8.85l1.53,12.11A.374.374,0,0,1,728,1636Z"/><path class="e" d="M719.36,1641.744a5.647,5.647,0,0,0,5.64-5.58l-1.56-12.37h-8.16l-1.57,12.37A5.655,5.655,0,0,0,719.36,1641.744Z"/><path class="e" d="M743.3,1669.644h3.16V1644.6a8.658,8.658,0,0,1-5.65-3.65,8.639,8.639,0,0,1-14.3,0,8.639,8.639,0,0,1-14.3,0,8.639,8.639,0,0,1-14.3,0,8.658,8.658,0,0,1-5.65,3.65v25.04h31.75v-13.66a9.645,9.645,0,1,1,19.29,0Zm-32.58-2.32h-9.43a1.5,1.5,0,0,1,0-3h9.43a1.5,1.5,0,0,1,0,3Zm5.32-.44a1.5,1.5,0,0,1-2.12,0,1.516,1.516,0,0,1-.44-1.06,1.5,1.5,0,0,1,.44-1.06,1.547,1.547,0,0,1,2.12,0,1.5,1.5,0,0,1,.44,1.06A1.516,1.516,0,0,1,716.04,1666.884Zm.84-4.36h-17.5a1.5,1.5,0,0,1,0-3h.41v-9.39a2.5,2.5,0,0,1,2.5-2.5h11.69a2.5,2.5,0,0,1,2.5,2.5v9.39h.4a1.5,1.5,0,0,1,0,3Z"/><rect class="e" width="10.69" height="8.89" transform="translate(702.79 1650.634)"/><rect class="e" width="5.09" height="2.62" transform="translate(743.3 1672.644)"/><path class="c" d="M713.92,1664.764a1.5,1.5,0,0,0-.44,1.06,1.516,1.516,0,0,0,.44,1.06,1.5,1.5,0,0,0,2.12,0,1.516,1.516,0,0,0,.44-1.06,1.5,1.5,0,0,0-.44-1.06A1.547,1.547,0,0,0,713.92,1664.764Z"/><path class="c" d="M710.72,1664.324h-9.43a1.5,1.5,0,0,0,0,3h9.43a1.5,1.5,0,0,0,0-3Z"/><path class="c" d="M716.88,1659.524h-.4v-9.39a2.5,2.5,0,0,0-2.5-2.5H702.29a2.5,2.5,0,0,0-2.5,2.5v9.39h-.41a1.5,1.5,0,0,0,0,3h17.5a1.5,1.5,0,0,0,0-3Zm-3.4,0H702.79v-8.89h10.69Z"/><path class="f" d="M685.04,1654.5c-5.75-6.94-8.43-13.48-8.43-20.6a26.16,26.16,0,0,1,6.62-17.87,22.314,22.314,0,0,1,16.6-7.22,20.785,20.785,0,0,1,12.99,4.49,26.88,26.88,0,0,1,5.32,5.56,1.563,1.563,0,0,0,2.43,0,26.921,26.921,0,0,1,5.33-5.56,20.736,20.736,0,0,1,12.98-4.49,22.314,22.314,0,0,1,16.6,7.22,26.159,26.159,0,0,1,6.62,17.87c0,7.12-2.68,13.66-8.43,20.6-1.22,1.47-2.62,3.01-4.21,4.64v4.23a89.617,89.617,0,0,0,6.52-6.95c6.22-7.51,9.12-14.66,9.12-22.52a29.088,29.088,0,0,0-7.42-19.9,25.274,25.274,0,0,0-18.8-8.19,23.738,23.738,0,0,0-14.82,5.11,29.138,29.138,0,0,0-4.7,4.6,29.607,29.607,0,0,0-4.71-4.6,23.718,23.718,0,0,0-14.82-5.11,25.274,25.274,0,0,0-18.8,8.19,29.135,29.135,0,0,0-7.42,19.9c0,7.86,2.9,15.01,9.12,22.52a88,88,0,0,0,6.53,6.95v-4.23C687.66,1657.514,686.26,1655.974,685.04,1654.5Z"/><path class="f" d="M721.79,1683.624a3.793,3.793,0,0,1-4.87,0c-2.13-1.86-4.19-3.64-6.2-5.36H706.1c2.8,2.39,5.77,4.93,8.85,7.62a6.675,6.675,0,0,0,8.81,0c3.2-2.79,6.24-5.39,8.85-7.62h-4.62C726.05,1679.934,723.96,1681.724,721.79,1683.624Z"/><path class="c" d="M749.46,1654.389V1644.6a8.657,8.657,0,0,0,7.15-8.51c0-.02-.01-.03-.01-.05a.983.983,0,0,0-.02-.17.585.585,0,0,0-.02-.13c-.01-.05-.03-.1-.04-.14l-.06-.15a.17.17,0,0,1-.02-.05l-7.24-13.8c-.01-.03-.03-.04-.04-.07-.03-.04-.06-.09-.09-.13a1.064,1.064,0,0,0-.09-.11.476.476,0,0,0-.1-.1,1.007,1.007,0,0,0-.11-.1c-.04-.03-.08-.05-.12-.08s-.08-.04-.13-.06a.587.587,0,0,0-.14-.06.5.5,0,0,0-.13-.04.353.353,0,0,0-.14-.03.874.874,0,0,0-.16-.02c-.02,0-.05-.01-.08-.01H690.76c-.03,0-.06.01-.09.01a.771.771,0,0,0-.15.02.8.8,0,0,0-.15.03.563.563,0,0,0-.12.04l-.15.06-.12.06-.12.09c-.04.03-.07.06-.11.09a1.153,1.153,0,0,0-.11.11.392.392,0,0,0-.08.1.672.672,0,0,0-.09.14c-.02.02-.03.04-.05.06l-7.15,13.8a.076.076,0,0,1-.02.05.879.879,0,0,0-.05.15.778.778,0,0,0-.05.14.59.59,0,0,0-.02.14.776.776,0,0,0-.02.16v.05a8.648,8.648,0,0,0,7.15,8.51v25.11a2.489,2.489,0,0,0-1.94,2.43v3.62a2.5,2.5,0,0,0,2.5,2.5h59.07a2.5,2.5,0,0,0,2.5-2.5v-3.62a2.491,2.491,0,0,0-1.93-2.43v-15.325Zm-14.15-30.6,3.99,12.5a5.647,5.647,0,0,1-11.29-.2c0-.03-.01-.06-.01-.09a.374.374,0,0,0-.01-.1l-1.53-12.11Zm-20.03,0h8.16l1.56,12.37a5.645,5.645,0,0,1-11.29,0Zm-3.03,0-1.53,12.11a.335.335,0,0,0,0,.1.278.278,0,0,0-.01.09,5.647,5.647,0,0,1-11.29.2l3.98-12.5Zm-27.13,12.64,6.55-12.64h8.58l-3.77,11.85c-.01.02-.01.05-.02.07l-.03.15c-.01.05-.01.11-.02.16v.07a5.65,5.65,0,0,1-11.29.34Zm38.89,38.83H690.32v-2.62h33.69Zm16.29,0H727.01v-19.28a6.645,6.645,0,1,1,13.29,0Zm-6.64-28.93a9.662,9.662,0,0,0-9.65,9.65v13.66H692.26V1644.6a8.658,8.658,0,0,0,5.65-3.65,8.639,8.639,0,0,0,14.3,0,8.639,8.639,0,0,0,14.3,0,8.639,8.639,0,0,0,14.3,0,8.658,8.658,0,0,0,5.65,3.65v25.04H743.3v-13.66A9.654,9.654,0,0,0,733.66,1646.334Zm14.73,28.93H743.3v-2.62h5.09Zm-.43-33.52a5.651,5.651,0,0,1-5.65-5.65c0-.02-.01-.05-.01-.07a.879.879,0,0,0-.02-.16.8.8,0,0,0-.03-.15.17.17,0,0,1-.01-.07l-3.78-11.85h8.51l6.62,12.64A5.65,5.65,0,0,1,747.96,1641.744Z"/></g></g></svg>