<svg xmlns="http://www.w3.org/2000/svg" width="36.771" height="36.771" viewBox="0 0 36.771 36.771"><defs><style>.a{fill:#2f5fc7;}.b{fill:#fff;}</style></defs><ellipse class="a" cx="18.386" cy="18.386" rx="18.386" ry="18.386"/><path class="b" d="M3.161,14.122H.233V4.694H3.161ZM1.7,3.408A1.7,1.7,0,1,1,3.391,1.7,1.71,1.71,0,0,1,1.7,3.408ZM14.119,14.122H11.2V9.533c0-1.094-.022-2.5-1.522-2.5-1.522,0-1.755,1.188-1.755,2.418v4.668H5V4.694H7.8V5.98h.041a3.076,3.076,0,0,1,2.77-1.523c2.963,0,3.508,1.951,3.508,4.486v5.179Z" transform="translate(12 10.999)"/></svg>