<?xml version="1.0" standalone="no"?>
<!DOCTYPE svg PUBLIC "-//W3C//DTD SVG 20010904//EN"
 "http://www.w3.org/TR/2001/REC-SVG-20010904/DTD/svg10.dtd">
<svg version="1.0" xmlns="http://www.w3.org/2000/svg"
 width="260.000000pt" height="260.000000pt" viewBox="0 0 260.000000 260.000000"
 preserveAspectRatio="xMidYMid meet">
<metadata>
Created by potrace 1.11, written by Peter Selinger 2001-2013
</metadata>
<g transform="translate(0.000000,260.000000) scale(0.100000,-0.100000)"
fill="#000000" stroke="none">
<path d="M735 2283 c-89 -16 -187 -56 -258 -104 -54 -37 -140 -133 -180 -200
-64 -109 -90 -205 -91 -344 0 -66 2 -138 7 -160 31 -162 127 -327 294 -505
l71 -75 0 -70 c0 -60 -3 -73 -24 -94 -20 -20 -24 -34 -24 -87 0 -105 -1 -104
248 -104 l207 0 90 -77 c50 -43 99 -86 110 -96 72 -67 175 -65 247 6 13 12 62
55 109 95 l86 72 207 0 c248 0 246 -1 246 105 0 56 -3 68 -24 86 -21 18 -24
30 -25 89 -1 75 -2 74 95 175 115 121 213 279 254 410 29 96 37 238 17 340
-21 111 -50 183 -109 271 -118 176 -313 277 -521 270 -123 -5 -148 -11 -243
-56 -53 -25 -104 -61 -150 -103 l-69 -64 -70 64 c-76 70 -194 134 -279 151
-47 10 -180 13 -221 5z m257 -92 c90 -31 147 -69 230 -154 61 -63 81 -77 97
-72 12 3 21 10 21 15 0 5 28 38 63 73 103 104 212 154 347 161 473 23 747
-524 483 -961 -42 -69 -158 -215 -185 -232 -16 -10 -17 1 -15 161 l2 171 31
11 c76 27 146 120 138 183 -3 26 -160 338 -186 371 -8 9 -163 12 -713 12 -656
0 -703 -1 -717 -17 -8 -10 -39 -65 -68 -123 -29 -58 -66 -129 -82 -158 -35
-66 -39 -87 -22 -135 21 -59 60 -103 114 -126 l49 -21 -1 -169 c0 -122 -4
-168 -12 -165 -17 8 -145 165 -182 225 -143 230 -146 510 -8 726 20 32 60 80
88 106 49 46 163 111 216 123 78 18 102 21 175 18 47 -2 103 -11 137 -23z
m-158 -342 c3 -3 -14 -68 -39 -145 -25 -76 -45 -148 -45 -159 0 -27 -34 -80
-62 -99 -54 -35 -119 -27 -170 21 -47 44 -45 72 8 176 66 130 106 201 115 207
11 8 186 6 193 -1z m291 -54 c-3 -33 -8 -73 -10 -90 -3 -16 -9 -65 -15 -108
-16 -126 -53 -172 -140 -171 -71 1 -127 48 -131 111 -2 28 75 289 91 308 5 6
52 11 110 10 l102 0 -7 -60z m276 56 c4 0 10 -34 14 -73 4 -40 9 -82 11 -93 2
-11 6 -51 9 -90 5 -59 3 -75 -14 -102 -28 -45 -67 -68 -117 -67 -49 0 -87 23
-115 67 -17 27 -19 42 -14 106 4 41 8 83 10 94 3 10 7 45 10 76 10 93 4 87
108 85 50 -1 95 -2 98 -3z m336 -141 c44 -138 48 -154 44 -191 -2 -22 -52 -76
-81 -87 -62 -23 -138 5 -167 61 -15 30 -58 331 -49 352 2 7 41 11 105 10 l102
0 46 -145z m314 -5 c43 -83 79 -156 79 -163 0 -36 -34 -82 -75 -102 -84 -40
-172 3 -190 93 -4 18 -26 96 -51 174 -24 77 -44 143 -44 145 0 2 45 4 101 3
l101 0 79 -150z m-1169 -339 c71 -30 158 -15 216 38 l36 33 33 -32 c35 -34 90
-55 144 -55 42 0 134 42 150 68 12 20 14 19 53 -14 86 -74 211 -70 285 9 l23
26 26 -26 c14 -14 45 -34 69 -45 l43 -19 0 -299 0 -300 -38 0 -39 0 1 178 c1
202 -9 250 -65 309 -92 96 -233 97 -330 3 -63 -61 -71 -95 -72 -312 l0 -178
-384 0 -383 0 2 302 3 302 32 9 c17 5 46 24 65 42 l33 32 30 -28 c17 -15 47
-35 67 -43z m856 -153 c14 -10 35 -32 46 -47 20 -26 21 -43 24 -291 l3 -264
-161 1 -160 0 0 249 c0 300 4 315 95 364 39 21 117 15 153 -12z m-323 -568 l0
-30 -402 -2 c-302 -1 -403 1 -405 10 -4 33 -3 42 3 47 4 3 187 5 406 5 l398 0
0 -30z m591 -3 l1 -33 -61 3 c-56 3 -61 5 -64 27 -5 31 7 37 70 36 52 -1 53
-1 54 -33z m-506 -115 c-102 -92 -152 -129 -184 -134 -39 -6 -51 1 -159 96
l-58 51 208 0 c172 0 205 -2 193 -13z"/>
<path d="M855 1264 c-20 -15 -21 -16 -25 -245 0 -18 -7 -28 -20 -32 -24 -6
-28 -52 -4 -61 31 -12 449 -7 462 6 19 19 14 44 -10 55 -21 9 -22 16 -23 136
-1 114 -3 128 -20 142 -29 21 -331 21 -360 -1z m306 -62 c1 -10 1 -184 0 -199
-1 -8 -37 -11 -128 -10 l-128 2 -1 95 c0 52 2 100 4 107 4 13 251 18 253 5z"/>
<path d="M844 863 c-16 -17 -17 -23 -4 -43 7 -11 36 -15 132 -16 130 -2 158 5
158 36 0 31 -27 37 -153 37 -90 0 -122 -3 -133 -14z"/>
<path d="M1176 864 c-23 -23 -17 -44 16 -57 34 -12 55 44 24 65 -16 11 -23 10
-40 -8z"/>
</g>
</svg>
