<?xml version="1.0" standalone="no"?>
<!DOCTYPE svg PUBLIC "-//W3C//DTD SVG 20010904//EN"
 "http://www.w3.org/TR/2001/REC-SVG-20010904/DTD/svg10.dtd">
<svg version="1.0" xmlns="http://www.w3.org/2000/svg"
 width="261.000000pt" height="261.000000pt" viewBox="0 0 261.000000 261.000000"
 preserveAspectRatio="xMidYMid meet">
<metadata>
Created by potrace 1.11, written by Peter Selinger 2001-2013
</metadata>
<g transform="translate(0.000000,261.000000) scale(0.100000,-0.100000)"
fill="#000000" stroke="none">
<path d="M1165 2603 c-330 -35 -653 -208 -864 -463 -158 -193 -250 -398 -289
-650 -4 -25 -7 -115 -7 -200 1 -121 6 -177 23 -255 160 -728 883 -1171 1607
-986 44 12 89 25 100 30 11 6 53 24 94 41 260 108 526 365 646 625 28 61 81
208 89 248 49 240 49 395 2 622 -27 128 -127 342 -215 459 -206 275 -482 448
-816 513 -73 14 -296 23 -370 16z"/>
</g>
</svg>
